<mxfile host="app.diagrams.net" agent="Mozilla/5.0 (Windows NT 10.0; Win64; x64) AppleWebKit/537.36 (KHTML, like Gecko) Chrome/133.0.0.0 Safari/537.36" version="26.0.16">
  <diagram name="Page-1" id="aV1SA9MMD2-bTEqijvaf">
    <mxGraphModel dx="1867" dy="1879" grid="1" gridSize="10" guides="1" tooltips="1" connect="1" arrows="1" fold="1" page="1" pageScale="1" pageWidth="1500" pageHeight="1169" math="0" shadow="0">
      <root>
        <mxCell id="0" />
        <mxCell id="1" parent="0" />
        <mxCell id="Bbd-Y3SnXmLpEQH7ZLkI-1" value="" style="endArrow=none;html=1;rounded=0;" parent="1" edge="1">
          <mxGeometry width="50" height="50" relative="1" as="geometry">
            <mxPoint x="110" y="-500" as="sourcePoint" />
            <mxPoint x="110" y="-380" as="targetPoint" />
          </mxGeometry>
        </mxCell>
        <mxCell id="Bbd-Y3SnXmLpEQH7ZLkI-37" value="num[3]" style="edgeLabel;html=1;align=center;verticalAlign=middle;resizable=0;points=[];rotation=0;" parent="Bbd-Y3SnXmLpEQH7ZLkI-1" vertex="1" connectable="0">
          <mxGeometry x="-0.3169" y="3" relative="1" as="geometry">
            <mxPoint x="-3" y="-71" as="offset" />
          </mxGeometry>
        </mxCell>
        <mxCell id="Bbd-Y3SnXmLpEQH7ZLkI-141" style="edgeStyle=orthogonalEdgeStyle;rounded=0;orthogonalLoop=1;jettySize=auto;html=1;exitX=1;exitY=0.5;exitDx=0;exitDy=0;exitPerimeter=0;entryX=0.175;entryY=0.25;entryDx=0;entryDy=0;entryPerimeter=0;" parent="1" target="Bbd-Y3SnXmLpEQH7ZLkI-63" edge="1">
          <mxGeometry relative="1" as="geometry">
            <mxPoint x="350.0050000000001" y="1814" as="targetPoint" />
            <mxPoint x="254.3800000000001" y="1704" as="sourcePoint" />
            <Array as="points">
              <mxPoint x="254" y="1705" />
              <mxPoint x="290" y="1705" />
              <mxPoint x="290" y="1814" />
            </Array>
          </mxGeometry>
        </mxCell>
        <mxCell id="Bbd-Y3SnXmLpEQH7ZLkI-7" value="" style="shape=or;whiteSpace=wrap;html=1;" parent="1" vertex="1">
          <mxGeometry x="220" y="1934" width="40" height="80" as="geometry" />
        </mxCell>
        <mxCell id="Bbd-Y3SnXmLpEQH7ZLkI-38" value="" style="endArrow=none;html=1;rounded=0;" parent="1" edge="1">
          <mxGeometry width="50" height="50" relative="1" as="geometry">
            <mxPoint x="120" y="-460" as="sourcePoint" />
            <mxPoint x="120" y="-360" as="targetPoint" />
          </mxGeometry>
        </mxCell>
        <mxCell id="Bbd-Y3SnXmLpEQH7ZLkI-39" value="num[2]" style="edgeLabel;html=1;align=center;verticalAlign=middle;resizable=0;points=[];" parent="Bbd-Y3SnXmLpEQH7ZLkI-38" vertex="1" connectable="0">
          <mxGeometry x="-0.3169" y="3" relative="1" as="geometry">
            <mxPoint x="7" y="-64" as="offset" />
          </mxGeometry>
        </mxCell>
        <mxCell id="Bbd-Y3SnXmLpEQH7ZLkI-47" value="" style="endArrow=none;html=1;rounded=0;" parent="1" edge="1">
          <mxGeometry width="50" height="50" relative="1" as="geometry">
            <mxPoint x="130" y="-430" as="sourcePoint" />
            <mxPoint x="130" y="-340" as="targetPoint" />
          </mxGeometry>
        </mxCell>
        <mxCell id="Bbd-Y3SnXmLpEQH7ZLkI-48" value="num[1]" style="edgeLabel;html=1;align=center;verticalAlign=middle;resizable=0;points=[];" parent="Bbd-Y3SnXmLpEQH7ZLkI-47" vertex="1" connectable="0">
          <mxGeometry x="-0.3169" y="3" relative="1" as="geometry">
            <mxPoint x="17" y="-51" as="offset" />
          </mxGeometry>
        </mxCell>
        <mxCell id="Bbd-Y3SnXmLpEQH7ZLkI-49" value="" style="endArrow=none;html=1;rounded=0;" parent="1" edge="1">
          <mxGeometry width="50" height="50" relative="1" as="geometry">
            <mxPoint x="140" y="-400" as="sourcePoint" />
            <mxPoint x="140" y="-320" as="targetPoint" />
          </mxGeometry>
        </mxCell>
        <mxCell id="Bbd-Y3SnXmLpEQH7ZLkI-50" value="num[0]" style="edgeLabel;html=1;align=center;verticalAlign=middle;resizable=0;points=[];" parent="Bbd-Y3SnXmLpEQH7ZLkI-49" vertex="1" connectable="0">
          <mxGeometry x="-0.3169" y="3" relative="1" as="geometry">
            <mxPoint x="17" y="-47" as="offset" />
          </mxGeometry>
        </mxCell>
        <mxCell id="Bbd-Y3SnXmLpEQH7ZLkI-51" value="" style="endArrow=none;html=1;rounded=0;" parent="1" edge="1">
          <mxGeometry width="50" height="50" relative="1" as="geometry">
            <mxPoint x="110" y="1944" as="sourcePoint" />
            <mxPoint x="110" y="-380" as="targetPoint" />
          </mxGeometry>
        </mxCell>
        <mxCell id="Bbd-Y3SnXmLpEQH7ZLkI-57" value="" style="endArrow=none;html=1;rounded=0;" parent="1" edge="1">
          <mxGeometry width="50" height="50" relative="1" as="geometry">
            <mxPoint x="120" y="1964" as="sourcePoint" />
            <mxPoint x="120" y="-360" as="targetPoint" />
          </mxGeometry>
        </mxCell>
        <mxCell id="Bbd-Y3SnXmLpEQH7ZLkI-58" value="" style="endArrow=none;html=1;rounded=0;" parent="1" edge="1">
          <mxGeometry width="50" height="50" relative="1" as="geometry">
            <mxPoint x="130" y="1984" as="sourcePoint" />
            <mxPoint x="130" y="-340" as="targetPoint" />
          </mxGeometry>
        </mxCell>
        <mxCell id="Bbd-Y3SnXmLpEQH7ZLkI-60" value="" style="endArrow=none;html=1;rounded=0;" parent="1" edge="1">
          <mxGeometry width="50" height="50" relative="1" as="geometry">
            <mxPoint x="140" y="2004" as="sourcePoint" />
            <mxPoint x="140" y="-320" as="targetPoint" />
          </mxGeometry>
        </mxCell>
        <mxCell id="Bbd-Y3SnXmLpEQH7ZLkI-479" style="edgeStyle=orthogonalEdgeStyle;rounded=0;orthogonalLoop=1;jettySize=auto;html=1;exitX=1;exitY=0.5;exitDx=0;exitDy=0;exitPerimeter=0;entryX=0.5;entryY=1;entryDx=0;entryDy=0;" parent="1" source="Bbd-Y3SnXmLpEQH7ZLkI-63" edge="1">
          <mxGeometry relative="1" as="geometry">
            <mxPoint x="490.00000000000045" y="1844" as="targetPoint" />
          </mxGeometry>
        </mxCell>
        <mxCell id="Bbd-Y3SnXmLpEQH7ZLkI-63" value="" style="shape=xor;whiteSpace=wrap;html=1;" parent="1" vertex="1">
          <mxGeometry x="342.5" y="1784" width="75" height="120" as="geometry" />
        </mxCell>
        <mxCell id="Bbd-Y3SnXmLpEQH7ZLkI-99" value="" style="endArrow=none;html=1;rounded=0;entryX=0;entryY=0.5;entryDx=0;entryDy=0;" parent="1" target="2vxnK_81wVWPnXpUkG2R-101" edge="1">
          <mxGeometry width="50" height="50" relative="1" as="geometry">
            <mxPoint x="110" y="1944" as="sourcePoint" />
            <mxPoint x="200" y="1944" as="targetPoint" />
          </mxGeometry>
        </mxCell>
        <mxCell id="Bbd-Y3SnXmLpEQH7ZLkI-100" value="" style="endArrow=none;html=1;rounded=0;entryX=0;entryY=0.5;entryDx=0;entryDy=0;" parent="1" target="2vxnK_81wVWPnXpUkG2R-102" edge="1">
          <mxGeometry width="50" height="50" relative="1" as="geometry">
            <mxPoint x="120" y="1963.74" as="sourcePoint" />
            <mxPoint x="200" y="1964" as="targetPoint" />
          </mxGeometry>
        </mxCell>
        <mxCell id="Bbd-Y3SnXmLpEQH7ZLkI-101" value="" style="endArrow=none;html=1;rounded=0;entryX=0;entryY=0.5;entryDx=0;entryDy=0;" parent="1" target="2vxnK_81wVWPnXpUkG2R-103" edge="1">
          <mxGeometry width="50" height="50" relative="1" as="geometry">
            <mxPoint x="130" y="1983.74" as="sourcePoint" />
            <mxPoint x="200" y="1984" as="targetPoint" />
          </mxGeometry>
        </mxCell>
        <mxCell id="Bbd-Y3SnXmLpEQH7ZLkI-102" value="" style="shape=or;whiteSpace=wrap;html=1;" parent="1" vertex="1">
          <mxGeometry x="220" y="1660" width="40" height="80" as="geometry" />
        </mxCell>
        <mxCell id="Bbd-Y3SnXmLpEQH7ZLkI-106" value="" style="endArrow=none;html=1;rounded=0;entryX=0;entryY=0.875;entryDx=0;entryDy=0;entryPerimeter=0;" parent="1" target="Bbd-Y3SnXmLpEQH7ZLkI-7" edge="1">
          <mxGeometry width="50" height="50" relative="1" as="geometry">
            <mxPoint x="140" y="2003.74" as="sourcePoint" />
            <mxPoint x="200" y="2004" as="targetPoint" />
          </mxGeometry>
        </mxCell>
        <mxCell id="Bbd-Y3SnXmLpEQH7ZLkI-111" value="" style="shape=or;whiteSpace=wrap;html=1;" parent="1" vertex="1">
          <mxGeometry x="220" y="1748" width="40" height="80" as="geometry" />
        </mxCell>
        <mxCell id="Bbd-Y3SnXmLpEQH7ZLkI-115" value="" style="shape=or;whiteSpace=wrap;html=1;" parent="1" vertex="1">
          <mxGeometry x="220" y="1840" width="40" height="80" as="geometry" />
        </mxCell>
        <mxCell id="Bbd-Y3SnXmLpEQH7ZLkI-119" value="" style="endArrow=none;html=1;rounded=0;entryX=0;entryY=0.375;entryDx=0;entryDy=0;entryPerimeter=0;" parent="1" target="Bbd-Y3SnXmLpEQH7ZLkI-115" edge="1">
          <mxGeometry width="50" height="50" relative="1" as="geometry">
            <mxPoint x="120" y="1870" as="sourcePoint" />
            <mxPoint x="200" y="1870" as="targetPoint" />
          </mxGeometry>
        </mxCell>
        <mxCell id="Bbd-Y3SnXmLpEQH7ZLkI-120" value="" style="endArrow=none;html=1;rounded=0;entryX=0;entryY=0.5;entryDx=0;entryDy=0;" parent="1" target="2vxnK_81wVWPnXpUkG2R-106" edge="1">
          <mxGeometry width="50" height="50" relative="1" as="geometry">
            <mxPoint x="130" y="1890" as="sourcePoint" />
            <mxPoint x="200" y="1890" as="targetPoint" />
          </mxGeometry>
        </mxCell>
        <mxCell id="Bbd-Y3SnXmLpEQH7ZLkI-121" value="" style="endArrow=none;html=1;rounded=0;entryX=0;entryY=0.5;entryDx=0;entryDy=0;" parent="1" target="2vxnK_81wVWPnXpUkG2R-105" edge="1">
          <mxGeometry width="50" height="50" relative="1" as="geometry">
            <mxPoint x="140" y="1910" as="sourcePoint" />
            <mxPoint x="200" y="1910" as="targetPoint" />
          </mxGeometry>
        </mxCell>
        <mxCell id="Bbd-Y3SnXmLpEQH7ZLkI-131" value="" style="endArrow=none;html=1;rounded=0;entryX=0;entryY=0.5;entryDx=0;entryDy=0;" parent="1" target="2vxnK_81wVWPnXpUkG2R-107" edge="1">
          <mxGeometry width="50" height="50" relative="1" as="geometry">
            <mxPoint x="110" y="1849.41" as="sourcePoint" />
            <mxPoint x="200" y="1850" as="targetPoint" />
          </mxGeometry>
        </mxCell>
        <mxCell id="Bbd-Y3SnXmLpEQH7ZLkI-132" value="" style="endArrow=none;html=1;rounded=0;entryX=-0.01;entryY=0.112;entryDx=0;entryDy=0;entryPerimeter=0;" parent="1" target="Bbd-Y3SnXmLpEQH7ZLkI-111" edge="1">
          <mxGeometry width="50" height="50" relative="1" as="geometry">
            <mxPoint x="110" y="1758" as="sourcePoint" />
            <mxPoint x="210" y="1748" as="targetPoint" />
          </mxGeometry>
        </mxCell>
        <mxCell id="Bbd-Y3SnXmLpEQH7ZLkI-133" value="" style="endArrow=none;html=1;rounded=0;entryX=-0.002;entryY=0.868;entryDx=0;entryDy=0;entryPerimeter=0;" parent="1" target="Bbd-Y3SnXmLpEQH7ZLkI-111" edge="1">
          <mxGeometry width="50" height="50" relative="1" as="geometry">
            <mxPoint x="140" y="1818" as="sourcePoint" />
            <mxPoint x="190" y="1788" as="targetPoint" />
          </mxGeometry>
        </mxCell>
        <mxCell id="Bbd-Y3SnXmLpEQH7ZLkI-134" value="" style="endArrow=none;html=1;rounded=0;entryX=0;entryY=0.5;entryDx=0;entryDy=0;" parent="1" target="2vxnK_81wVWPnXpUkG2R-108" edge="1">
          <mxGeometry width="50" height="50" relative="1" as="geometry">
            <mxPoint x="130" y="1798" as="sourcePoint" />
            <mxPoint x="200" y="1798" as="targetPoint" />
          </mxGeometry>
        </mxCell>
        <mxCell id="Bbd-Y3SnXmLpEQH7ZLkI-135" value="" style="endArrow=none;html=1;rounded=0;entryX=-0.006;entryY=0.364;entryDx=0;entryDy=0;entryPerimeter=0;" parent="1" target="Bbd-Y3SnXmLpEQH7ZLkI-111" edge="1">
          <mxGeometry width="50" height="50" relative="1" as="geometry">
            <mxPoint x="120" y="1778" as="sourcePoint" />
            <mxPoint x="220" y="1776" as="targetPoint" />
          </mxGeometry>
        </mxCell>
        <mxCell id="Bbd-Y3SnXmLpEQH7ZLkI-136" value="" style="endArrow=none;html=1;rounded=0;entryX=0;entryY=0.5;entryDx=0;entryDy=0;" parent="1" target="2vxnK_81wVWPnXpUkG2R-109" edge="1">
          <mxGeometry width="50" height="50" relative="1" as="geometry">
            <mxPoint x="120" y="1690" as="sourcePoint" />
            <mxPoint x="200" y="1690" as="targetPoint" />
          </mxGeometry>
        </mxCell>
        <mxCell id="Bbd-Y3SnXmLpEQH7ZLkI-137" value="" style="endArrow=none;html=1;rounded=0;" parent="1" edge="1">
          <mxGeometry width="50" height="50" relative="1" as="geometry">
            <mxPoint x="110" y="1670" as="sourcePoint" />
            <mxPoint x="220" y="1670" as="targetPoint" />
          </mxGeometry>
        </mxCell>
        <mxCell id="Bbd-Y3SnXmLpEQH7ZLkI-138" value="" style="endArrow=none;html=1;rounded=0;entryX=0;entryY=0.75;entryDx=0;entryDy=0;entryPerimeter=0;" parent="1" edge="1">
          <mxGeometry width="50" height="50" relative="1" as="geometry">
            <mxPoint x="130" y="1710" as="sourcePoint" />
            <mxPoint x="220" y="1710" as="targetPoint" />
          </mxGeometry>
        </mxCell>
        <mxCell id="Bbd-Y3SnXmLpEQH7ZLkI-139" value="" style="endArrow=none;html=1;rounded=0;" parent="1" edge="1">
          <mxGeometry width="50" height="50" relative="1" as="geometry">
            <mxPoint x="140" y="1730" as="sourcePoint" />
            <mxPoint x="220" y="1730" as="targetPoint" />
          </mxGeometry>
        </mxCell>
        <mxCell id="Bbd-Y3SnXmLpEQH7ZLkI-212" style="edgeStyle=orthogonalEdgeStyle;rounded=0;orthogonalLoop=1;jettySize=auto;html=1;exitX=1;exitY=0.5;exitDx=0;exitDy=0;exitPerimeter=0;entryX=0.136;entryY=0.179;entryDx=0;entryDy=0;entryPerimeter=0;" parent="1" target="Bbd-Y3SnXmLpEQH7ZLkI-214" edge="1">
          <mxGeometry relative="1" as="geometry">
            <mxPoint x="350.0050000000001" y="1130" as="targetPoint" />
            <mxPoint x="254.3800000000001" y="1020" as="sourcePoint" />
            <Array as="points">
              <mxPoint x="290" y="1021" />
              <mxPoint x="290" y="1121" />
              <mxPoint x="353" y="1121" />
            </Array>
          </mxGeometry>
        </mxCell>
        <mxCell id="Bbd-Y3SnXmLpEQH7ZLkI-213" value="" style="shape=or;whiteSpace=wrap;html=1;" parent="1" vertex="1">
          <mxGeometry x="220" y="980" width="40" height="80" as="geometry" />
        </mxCell>
        <mxCell id="Bbd-Y3SnXmLpEQH7ZLkI-481" style="edgeStyle=orthogonalEdgeStyle;rounded=0;orthogonalLoop=1;jettySize=auto;html=1;exitX=1;exitY=0.5;exitDx=0;exitDy=0;exitPerimeter=0;" parent="1" source="Bbd-Y3SnXmLpEQH7ZLkI-214" edge="1">
          <mxGeometry relative="1" as="geometry">
            <mxPoint x="490" y="1160" as="targetPoint" />
          </mxGeometry>
        </mxCell>
        <mxCell id="Bbd-Y3SnXmLpEQH7ZLkI-214" value="" style="shape=xor;whiteSpace=wrap;html=1;" parent="1" vertex="1">
          <mxGeometry x="342.5" y="1100" width="75" height="120" as="geometry" />
        </mxCell>
        <mxCell id="Bbd-Y3SnXmLpEQH7ZLkI-220" value="" style="shape=or;whiteSpace=wrap;html=1;" parent="1" vertex="1">
          <mxGeometry x="220" y="1160" width="40" height="80" as="geometry" />
        </mxCell>
        <mxCell id="Bbd-Y3SnXmLpEQH7ZLkI-222" style="edgeStyle=orthogonalEdgeStyle;rounded=0;orthogonalLoop=1;jettySize=auto;html=1;exitX=1;exitY=0.5;exitDx=0;exitDy=0;exitPerimeter=0;entryX=0.25;entryY=0.5;entryDx=0;entryDy=0;entryPerimeter=0;" parent="1" source="Bbd-Y3SnXmLpEQH7ZLkI-223" target="Bbd-Y3SnXmLpEQH7ZLkI-214" edge="1">
          <mxGeometry relative="1" as="geometry">
            <mxPoint x="280" y="1150" as="targetPoint" />
            <Array as="points">
              <mxPoint x="280" y="1110" />
              <mxPoint x="280" y="1160" />
            </Array>
          </mxGeometry>
        </mxCell>
        <mxCell id="Bbd-Y3SnXmLpEQH7ZLkI-223" value="" style="shape=or;whiteSpace=wrap;html=1;" parent="1" vertex="1">
          <mxGeometry x="220" y="1070" width="40" height="80" as="geometry" />
        </mxCell>
        <mxCell id="Bbd-Y3SnXmLpEQH7ZLkI-227" style="edgeStyle=orthogonalEdgeStyle;rounded=0;orthogonalLoop=1;jettySize=auto;html=1;exitX=1;exitY=0.5;exitDx=0;exitDy=0;exitPerimeter=0;entryX=0.147;entryY=0.828;entryDx=0;entryDy=0;entryPerimeter=0;" parent="1" source="Bbd-Y3SnXmLpEQH7ZLkI-220" target="Bbd-Y3SnXmLpEQH7ZLkI-214" edge="1">
          <mxGeometry relative="1" as="geometry" />
        </mxCell>
        <mxCell id="Bbd-Y3SnXmLpEQH7ZLkI-229" value="" style="endArrow=none;html=1;rounded=0;entryX=0;entryY=0.5;entryDx=0;entryDy=0;" parent="1" target="2vxnK_81wVWPnXpUkG2R-129" edge="1">
          <mxGeometry width="50" height="50" relative="1" as="geometry">
            <mxPoint x="110" y="990" as="sourcePoint" />
            <mxPoint x="200" y="990" as="targetPoint" />
          </mxGeometry>
        </mxCell>
        <mxCell id="Bbd-Y3SnXmLpEQH7ZLkI-230" value="" style="endArrow=none;html=1;rounded=0;entryX=0;entryY=0.5;entryDx=0;entryDy=0;" parent="1" target="2vxnK_81wVWPnXpUkG2R-141" edge="1">
          <mxGeometry width="50" height="50" relative="1" as="geometry">
            <mxPoint x="120" y="1009.8" as="sourcePoint" />
            <mxPoint x="200" y="1010" as="targetPoint" />
          </mxGeometry>
        </mxCell>
        <mxCell id="Bbd-Y3SnXmLpEQH7ZLkI-231" value="" style="endArrow=none;html=1;rounded=0;" parent="1" edge="1">
          <mxGeometry width="50" height="50" relative="1" as="geometry">
            <mxPoint x="130" y="1030" as="sourcePoint" />
            <mxPoint x="220" y="1030" as="targetPoint" />
          </mxGeometry>
        </mxCell>
        <mxCell id="Bbd-Y3SnXmLpEQH7ZLkI-232" value="" style="endArrow=none;html=1;rounded=0;entryX=0;entryY=0.5;entryDx=0;entryDy=0;" parent="1" target="2vxnK_81wVWPnXpUkG2R-128" edge="1">
          <mxGeometry width="50" height="50" relative="1" as="geometry">
            <mxPoint x="140" y="1049.6" as="sourcePoint" />
            <mxPoint x="200" y="1050" as="targetPoint" />
          </mxGeometry>
        </mxCell>
        <mxCell id="Bbd-Y3SnXmLpEQH7ZLkI-233" value="" style="endArrow=none;html=1;rounded=0;" parent="1" edge="1">
          <mxGeometry width="50" height="50" relative="1" as="geometry">
            <mxPoint x="110" y="1080" as="sourcePoint" />
            <mxPoint x="220" y="1080" as="targetPoint" />
          </mxGeometry>
        </mxCell>
        <mxCell id="Bbd-Y3SnXmLpEQH7ZLkI-234" value="" style="endArrow=none;html=1;rounded=0;" parent="1" edge="1">
          <mxGeometry width="50" height="50" relative="1" as="geometry">
            <mxPoint x="120" y="1109.78" as="sourcePoint" />
            <mxPoint x="220" y="1110" as="targetPoint" />
          </mxGeometry>
        </mxCell>
        <mxCell id="Bbd-Y3SnXmLpEQH7ZLkI-235" value="" style="endArrow=none;html=1;rounded=0;entryX=0;entryY=0.75;entryDx=0;entryDy=0;entryPerimeter=0;" parent="1" edge="1">
          <mxGeometry width="50" height="50" relative="1" as="geometry">
            <mxPoint x="130" y="1140" as="sourcePoint" />
            <mxPoint x="220" y="1139.9999999999998" as="targetPoint" />
          </mxGeometry>
        </mxCell>
        <mxCell id="Bbd-Y3SnXmLpEQH7ZLkI-236" value="" style="endArrow=none;html=1;rounded=0;entryX=-0.012;entryY=0.123;entryDx=0;entryDy=0;entryPerimeter=0;" parent="1" target="Bbd-Y3SnXmLpEQH7ZLkI-220" edge="1">
          <mxGeometry width="50" height="50" relative="1" as="geometry">
            <mxPoint x="110" y="1170" as="sourcePoint" />
            <mxPoint x="160" y="1150" as="targetPoint" />
          </mxGeometry>
        </mxCell>
        <mxCell id="Bbd-Y3SnXmLpEQH7ZLkI-237" value="" style="endArrow=none;html=1;rounded=0;" parent="1" edge="1">
          <mxGeometry width="50" height="50" relative="1" as="geometry">
            <mxPoint x="120" y="1199.81" as="sourcePoint" />
            <mxPoint x="220" y="1200" as="targetPoint" />
          </mxGeometry>
        </mxCell>
        <mxCell id="Bbd-Y3SnXmLpEQH7ZLkI-238" value="" style="endArrow=none;html=1;rounded=0;entryX=0;entryY=0.5;entryDx=0;entryDy=0;" parent="1" target="2vxnK_81wVWPnXpUkG2R-127" edge="1">
          <mxGeometry width="50" height="50" relative="1" as="geometry">
            <mxPoint x="140" y="1229.81" as="sourcePoint" />
            <mxPoint x="200" y="1230" as="targetPoint" />
          </mxGeometry>
        </mxCell>
        <mxCell id="Bbd-Y3SnXmLpEQH7ZLkI-239" style="edgeStyle=orthogonalEdgeStyle;rounded=0;orthogonalLoop=1;jettySize=auto;html=1;exitX=1;exitY=0.5;exitDx=0;exitDy=0;exitPerimeter=0;entryX=0.175;entryY=0.25;entryDx=0;entryDy=0;entryPerimeter=0;" parent="1" target="Bbd-Y3SnXmLpEQH7ZLkI-241" edge="1">
          <mxGeometry relative="1" as="geometry">
            <mxPoint x="350.0050000000001" y="750" as="targetPoint" />
            <mxPoint x="254.3800000000001" y="640" as="sourcePoint" />
            <Array as="points">
              <mxPoint x="254" y="641" />
              <mxPoint x="290" y="641" />
              <mxPoint x="290" y="750" />
            </Array>
          </mxGeometry>
        </mxCell>
        <mxCell id="Bbd-Y3SnXmLpEQH7ZLkI-240" value="" style="shape=or;whiteSpace=wrap;html=1;" parent="1" vertex="1">
          <mxGeometry x="220" y="600" width="40" height="80" as="geometry" />
        </mxCell>
        <mxCell id="Bbd-Y3SnXmLpEQH7ZLkI-482" style="edgeStyle=orthogonalEdgeStyle;rounded=0;orthogonalLoop=1;jettySize=auto;html=1;exitX=1;exitY=0.5;exitDx=0;exitDy=0;exitPerimeter=0;entryX=0.5;entryY=1;entryDx=0;entryDy=0;" parent="1" source="Bbd-Y3SnXmLpEQH7ZLkI-241" edge="1">
          <mxGeometry relative="1" as="geometry">
            <mxPoint x="490" y="780" as="targetPoint" />
          </mxGeometry>
        </mxCell>
        <mxCell id="Bbd-Y3SnXmLpEQH7ZLkI-241" value="" style="shape=xor;whiteSpace=wrap;html=1;" parent="1" vertex="1">
          <mxGeometry x="342.5" y="720" width="75" height="120" as="geometry" />
        </mxCell>
        <mxCell id="Bbd-Y3SnXmLpEQH7ZLkI-245" value="" style="shape=or;whiteSpace=wrap;html=1;" parent="1" vertex="1">
          <mxGeometry x="220" y="870" width="40" height="80" as="geometry" />
        </mxCell>
        <mxCell id="Bbd-Y3SnXmLpEQH7ZLkI-247" value="" style="shape=or;whiteSpace=wrap;html=1;" parent="1" vertex="1">
          <mxGeometry x="220" y="780" width="40" height="80" as="geometry" />
        </mxCell>
        <mxCell id="Bbd-Y3SnXmLpEQH7ZLkI-249" style="edgeStyle=orthogonalEdgeStyle;rounded=0;orthogonalLoop=1;jettySize=auto;html=1;exitX=1;exitY=0.5;exitDx=0;exitDy=0;exitPerimeter=0;entryX=0.233;entryY=0.417;entryDx=0;entryDy=0;entryPerimeter=0;" parent="1" source="Bbd-Y3SnXmLpEQH7ZLkI-250" target="Bbd-Y3SnXmLpEQH7ZLkI-241" edge="1">
          <mxGeometry relative="1" as="geometry">
            <mxPoint x="280" y="770" as="targetPoint" />
            <Array as="points">
              <mxPoint x="280" y="730" />
              <mxPoint x="280" y="770" />
            </Array>
          </mxGeometry>
        </mxCell>
        <mxCell id="Bbd-Y3SnXmLpEQH7ZLkI-250" value="" style="shape=or;whiteSpace=wrap;html=1;" parent="1" vertex="1">
          <mxGeometry x="220" y="690" width="40" height="80" as="geometry" />
        </mxCell>
        <mxCell id="Bbd-Y3SnXmLpEQH7ZLkI-254" style="edgeStyle=orthogonalEdgeStyle;rounded=0;orthogonalLoop=1;jettySize=auto;html=1;exitX=1;exitY=0.5;exitDx=0;exitDy=0;exitPerimeter=0;entryX=0.233;entryY=0.583;entryDx=0;entryDy=0;entryPerimeter=0;" parent="1" source="Bbd-Y3SnXmLpEQH7ZLkI-247" target="Bbd-Y3SnXmLpEQH7ZLkI-241" edge="1">
          <mxGeometry relative="1" as="geometry" />
        </mxCell>
        <mxCell id="Bbd-Y3SnXmLpEQH7ZLkI-255" style="edgeStyle=orthogonalEdgeStyle;rounded=0;orthogonalLoop=1;jettySize=auto;html=1;exitX=1;exitY=0.5;exitDx=0;exitDy=0;exitPerimeter=0;entryX=0.175;entryY=0.75;entryDx=0;entryDy=0;entryPerimeter=0;" parent="1" source="Bbd-Y3SnXmLpEQH7ZLkI-245" target="Bbd-Y3SnXmLpEQH7ZLkI-241" edge="1">
          <mxGeometry relative="1" as="geometry">
            <Array as="points">
              <mxPoint x="320" y="910" />
              <mxPoint x="320" y="810" />
            </Array>
          </mxGeometry>
        </mxCell>
        <mxCell id="Bbd-Y3SnXmLpEQH7ZLkI-258" value="" style="endArrow=none;html=1;rounded=0;entryX=0;entryY=0.5;entryDx=0;entryDy=0;" parent="1" target="2vxnK_81wVWPnXpUkG2R-137" edge="1">
          <mxGeometry width="50" height="50" relative="1" as="geometry">
            <mxPoint x="110" y="610" as="sourcePoint" />
            <mxPoint x="200" y="610" as="targetPoint" />
          </mxGeometry>
        </mxCell>
        <mxCell id="Bbd-Y3SnXmLpEQH7ZLkI-259" value="" style="endArrow=none;html=1;rounded=0;entryX=-0.021;entryY=0.435;entryDx=0;entryDy=0;entryPerimeter=0;" parent="1" target="Bbd-Y3SnXmLpEQH7ZLkI-240" edge="1">
          <mxGeometry width="50" height="50" relative="1" as="geometry">
            <mxPoint x="120" y="634.71" as="sourcePoint" />
            <mxPoint x="210" y="634.71" as="targetPoint" />
          </mxGeometry>
        </mxCell>
        <mxCell id="Bbd-Y3SnXmLpEQH7ZLkI-260" value="" style="endArrow=none;html=1;rounded=0;entryX=0;entryY=0.5;entryDx=0;entryDy=0;" parent="1" target="2vxnK_81wVWPnXpUkG2R-136" edge="1">
          <mxGeometry width="50" height="50" relative="1" as="geometry">
            <mxPoint x="130" y="649.71" as="sourcePoint" />
            <mxPoint x="200" y="650" as="targetPoint" />
          </mxGeometry>
        </mxCell>
        <mxCell id="Bbd-Y3SnXmLpEQH7ZLkI-261" value="" style="endArrow=none;html=1;rounded=0;entryX=0;entryY=0.5;entryDx=0;entryDy=0;" parent="1" target="2vxnK_81wVWPnXpUkG2R-135" edge="1">
          <mxGeometry width="50" height="50" relative="1" as="geometry">
            <mxPoint x="140" y="669.71" as="sourcePoint" />
            <mxPoint x="200" y="670" as="targetPoint" />
          </mxGeometry>
        </mxCell>
        <mxCell id="Bbd-Y3SnXmLpEQH7ZLkI-262" value="" style="endArrow=none;html=1;rounded=0;" parent="1" edge="1">
          <mxGeometry width="50" height="50" relative="1" as="geometry">
            <mxPoint x="110" y="690" as="sourcePoint" />
            <mxPoint x="190" y="690" as="targetPoint" />
          </mxGeometry>
        </mxCell>
        <mxCell id="Bbd-Y3SnXmLpEQH7ZLkI-263" value="" style="endArrow=none;html=1;rounded=0;" parent="1" edge="1">
          <mxGeometry width="50" height="50" relative="1" as="geometry">
            <mxPoint x="190" y="700" as="sourcePoint" />
            <mxPoint x="190" y="690" as="targetPoint" />
          </mxGeometry>
        </mxCell>
        <mxCell id="Bbd-Y3SnXmLpEQH7ZLkI-264" value="" style="endArrow=none;html=1;rounded=0;entryX=0;entryY=0.5;entryDx=0;entryDy=0;" parent="1" target="2vxnK_81wVWPnXpUkG2R-134" edge="1">
          <mxGeometry width="50" height="50" relative="1" as="geometry">
            <mxPoint x="190" y="700" as="sourcePoint" />
            <mxPoint x="200.0000000000001" y="700" as="targetPoint" />
          </mxGeometry>
        </mxCell>
        <mxCell id="Bbd-Y3SnXmLpEQH7ZLkI-265" value="" style="endArrow=none;html=1;rounded=0;entryX=-0.239;entryY=0.544;entryDx=0;entryDy=0;entryPerimeter=0;" parent="1" target="2vxnK_81wVWPnXpUkG2R-133" edge="1">
          <mxGeometry width="50" height="50" relative="1" as="geometry">
            <mxPoint x="120" y="720" as="sourcePoint" />
            <mxPoint x="200" y="720" as="targetPoint" />
          </mxGeometry>
        </mxCell>
        <mxCell id="Bbd-Y3SnXmLpEQH7ZLkI-266" value="" style="endArrow=none;html=1;rounded=0;entryX=0;entryY=0.5;entryDx=0;entryDy=0;" parent="1" target="2vxnK_81wVWPnXpUkG2R-132" edge="1">
          <mxGeometry width="50" height="50" relative="1" as="geometry">
            <mxPoint x="130" y="740" as="sourcePoint" />
            <mxPoint x="200" y="740" as="targetPoint" />
          </mxGeometry>
        </mxCell>
        <mxCell id="Bbd-Y3SnXmLpEQH7ZLkI-267" value="" style="endArrow=none;html=1;rounded=0;" parent="1" edge="1">
          <mxGeometry width="50" height="50" relative="1" as="geometry">
            <mxPoint x="140" y="760" as="sourcePoint" />
            <mxPoint x="220" y="760" as="targetPoint" />
          </mxGeometry>
        </mxCell>
        <mxCell id="Bbd-Y3SnXmLpEQH7ZLkI-268" value="" style="endArrow=none;html=1;rounded=0;" parent="1" edge="1">
          <mxGeometry width="50" height="50" relative="1" as="geometry">
            <mxPoint x="110" y="790" as="sourcePoint" />
            <mxPoint x="220" y="790" as="targetPoint" />
          </mxGeometry>
        </mxCell>
        <mxCell id="Bbd-Y3SnXmLpEQH7ZLkI-269" value="" style="endArrow=none;html=1;rounded=0;entryX=0;entryY=0.5;entryDx=0;entryDy=0;" parent="1" target="2vxnK_81wVWPnXpUkG2R-131" edge="1">
          <mxGeometry width="50" height="50" relative="1" as="geometry">
            <mxPoint x="120" y="809.8400000000001" as="sourcePoint" />
            <mxPoint x="200" y="810" as="targetPoint" />
          </mxGeometry>
        </mxCell>
        <mxCell id="Bbd-Y3SnXmLpEQH7ZLkI-270" value="" style="endArrow=none;html=1;rounded=0;" parent="1" edge="1">
          <mxGeometry width="50" height="50" relative="1" as="geometry">
            <mxPoint x="130" y="830" as="sourcePoint" />
            <mxPoint x="220" y="830" as="targetPoint" />
          </mxGeometry>
        </mxCell>
        <mxCell id="Bbd-Y3SnXmLpEQH7ZLkI-273" value="" style="endArrow=none;html=1;rounded=0;entryX=0;entryY=0.5;entryDx=0;entryDy=0;" parent="1" target="2vxnK_81wVWPnXpUkG2R-130" edge="1">
          <mxGeometry width="50" height="50" relative="1" as="geometry">
            <mxPoint x="130" y="849.8400000000001" as="sourcePoint" />
            <mxPoint x="200" y="850" as="targetPoint" />
          </mxGeometry>
        </mxCell>
        <mxCell id="Bbd-Y3SnXmLpEQH7ZLkI-274" value="" style="endArrow=none;html=1;rounded=0;" parent="1" edge="1">
          <mxGeometry width="50" height="50" relative="1" as="geometry">
            <mxPoint x="120" y="890" as="sourcePoint" />
            <mxPoint x="220" y="890" as="targetPoint" />
          </mxGeometry>
        </mxCell>
        <mxCell id="Bbd-Y3SnXmLpEQH7ZLkI-275" value="" style="endArrow=none;html=1;rounded=0;" parent="1" edge="1">
          <mxGeometry width="50" height="50" relative="1" as="geometry">
            <mxPoint x="130" y="909.8400000000001" as="sourcePoint" />
            <mxPoint x="220" y="910" as="targetPoint" />
          </mxGeometry>
        </mxCell>
        <mxCell id="Bbd-Y3SnXmLpEQH7ZLkI-276" value="" style="endArrow=none;html=1;rounded=0;" parent="1" edge="1">
          <mxGeometry width="50" height="50" relative="1" as="geometry">
            <mxPoint x="140" y="930" as="sourcePoint" />
            <mxPoint x="220" y="930" as="targetPoint" />
          </mxGeometry>
        </mxCell>
        <mxCell id="Bbd-Y3SnXmLpEQH7ZLkI-278" value="" style="shape=or;whiteSpace=wrap;html=1;" parent="1" vertex="1">
          <mxGeometry x="220" y="320" width="40" height="80" as="geometry" />
        </mxCell>
        <mxCell id="Bbd-Y3SnXmLpEQH7ZLkI-483" style="edgeStyle=orthogonalEdgeStyle;rounded=0;orthogonalLoop=1;jettySize=auto;html=1;exitX=1;exitY=0.5;exitDx=0;exitDy=0;exitPerimeter=0;entryX=0.5;entryY=1;entryDx=0;entryDy=0;" parent="1" source="Bbd-Y3SnXmLpEQH7ZLkI-279" edge="1">
          <mxGeometry relative="1" as="geometry">
            <mxPoint x="490" y="450" as="targetPoint" />
          </mxGeometry>
        </mxCell>
        <mxCell id="Bbd-Y3SnXmLpEQH7ZLkI-279" value="" style="shape=xor;whiteSpace=wrap;html=1;" parent="1" vertex="1">
          <mxGeometry x="342.5" y="390" width="75" height="120" as="geometry" />
        </mxCell>
        <mxCell id="Bbd-Y3SnXmLpEQH7ZLkI-284" value="" style="shape=or;whiteSpace=wrap;html=1;" parent="1" vertex="1">
          <mxGeometry x="220" y="500" width="40" height="80" as="geometry" />
        </mxCell>
        <mxCell id="Bbd-Y3SnXmLpEQH7ZLkI-287" value="" style="shape=or;whiteSpace=wrap;html=1;" parent="1" vertex="1">
          <mxGeometry x="220" y="410" width="40" height="80" as="geometry" />
        </mxCell>
        <mxCell id="Bbd-Y3SnXmLpEQH7ZLkI-295" value="" style="endArrow=none;html=1;rounded=0;entryX=0;entryY=0.5;entryDx=0;entryDy=0;" parent="1" target="2vxnK_81wVWPnXpUkG2R-144" edge="1">
          <mxGeometry width="50" height="50" relative="1" as="geometry">
            <mxPoint x="110" y="339.6600000000001" as="sourcePoint" />
            <mxPoint x="200" y="339.6600000000001" as="targetPoint" />
          </mxGeometry>
        </mxCell>
        <mxCell id="Bbd-Y3SnXmLpEQH7ZLkI-296" value="" style="endArrow=none;html=1;rounded=0;" parent="1" edge="1">
          <mxGeometry width="50" height="50" relative="1" as="geometry">
            <mxPoint x="140" y="380.30999999999995" as="sourcePoint" />
            <mxPoint x="220" y="380" as="targetPoint" />
          </mxGeometry>
        </mxCell>
        <mxCell id="Bbd-Y3SnXmLpEQH7ZLkI-297" value="" style="endArrow=none;html=1;rounded=0;entryX=0;entryY=0.5;entryDx=0;entryDy=0;" parent="1" target="2vxnK_81wVWPnXpUkG2R-143" edge="1">
          <mxGeometry width="50" height="50" relative="1" as="geometry">
            <mxPoint x="110" y="430" as="sourcePoint" />
            <mxPoint x="200" y="430" as="targetPoint" />
          </mxGeometry>
        </mxCell>
        <mxCell id="Bbd-Y3SnXmLpEQH7ZLkI-298" value="" style="endArrow=none;html=1;rounded=0;entryX=0;entryY=0.5;entryDx=0;entryDy=0;entryPerimeter=0;" parent="1" target="Bbd-Y3SnXmLpEQH7ZLkI-287" edge="1">
          <mxGeometry width="50" height="50" relative="1" as="geometry">
            <mxPoint x="120" y="449.76" as="sourcePoint" />
            <mxPoint x="210" y="449.76" as="targetPoint" />
          </mxGeometry>
        </mxCell>
        <mxCell id="Bbd-Y3SnXmLpEQH7ZLkI-299" value="" style="endArrow=none;html=1;rounded=0;entryX=0;entryY=0.5;entryDx=0;entryDy=0;" parent="1" target="2vxnK_81wVWPnXpUkG2R-142" edge="1">
          <mxGeometry width="50" height="50" relative="1" as="geometry">
            <mxPoint x="130" y="469.76" as="sourcePoint" />
            <mxPoint x="200" y="470" as="targetPoint" />
          </mxGeometry>
        </mxCell>
        <mxCell id="Bbd-Y3SnXmLpEQH7ZLkI-300" value="" style="endArrow=none;html=1;rounded=0;entryX=0;entryY=0.5;entryDx=0;entryDy=0;" parent="1" target="2vxnK_81wVWPnXpUkG2R-140" edge="1">
          <mxGeometry width="50" height="50" relative="1" as="geometry">
            <mxPoint x="120" y="520" as="sourcePoint" />
            <mxPoint x="200" y="520" as="targetPoint" />
          </mxGeometry>
        </mxCell>
        <mxCell id="Bbd-Y3SnXmLpEQH7ZLkI-301" value="" style="endArrow=none;html=1;rounded=0;entryX=0;entryY=0.5;entryDx=0;entryDy=0;" parent="1" target="2vxnK_81wVWPnXpUkG2R-139" edge="1">
          <mxGeometry width="50" height="50" relative="1" as="geometry">
            <mxPoint x="130" y="540" as="sourcePoint" />
            <mxPoint x="200" y="540" as="targetPoint" />
          </mxGeometry>
        </mxCell>
        <mxCell id="Bbd-Y3SnXmLpEQH7ZLkI-302" value="" style="endArrow=none;html=1;rounded=0;" parent="1" edge="1">
          <mxGeometry width="50" height="50" relative="1" as="geometry">
            <mxPoint x="140" y="560" as="sourcePoint" />
            <mxPoint x="220" y="560" as="targetPoint" />
          </mxGeometry>
        </mxCell>
        <mxCell id="Bbd-Y3SnXmLpEQH7ZLkI-303" style="edgeStyle=orthogonalEdgeStyle;rounded=0;orthogonalLoop=1;jettySize=auto;html=1;exitX=1;exitY=0.5;exitDx=0;exitDy=0;exitPerimeter=0;entryX=0.175;entryY=0.25;entryDx=0;entryDy=0;entryPerimeter=0;" parent="1" source="Bbd-Y3SnXmLpEQH7ZLkI-278" target="Bbd-Y3SnXmLpEQH7ZLkI-279" edge="1">
          <mxGeometry relative="1" as="geometry" />
        </mxCell>
        <mxCell id="Bbd-Y3SnXmLpEQH7ZLkI-304" style="edgeStyle=orthogonalEdgeStyle;rounded=0;orthogonalLoop=1;jettySize=auto;html=1;exitX=1;exitY=0.5;exitDx=0;exitDy=0;exitPerimeter=0;entryX=0.25;entryY=0.5;entryDx=0;entryDy=0;entryPerimeter=0;" parent="1" source="Bbd-Y3SnXmLpEQH7ZLkI-287" target="Bbd-Y3SnXmLpEQH7ZLkI-279" edge="1">
          <mxGeometry relative="1" as="geometry" />
        </mxCell>
        <mxCell id="Bbd-Y3SnXmLpEQH7ZLkI-305" style="edgeStyle=orthogonalEdgeStyle;rounded=0;orthogonalLoop=1;jettySize=auto;html=1;exitX=1;exitY=0.5;exitDx=0;exitDy=0;exitPerimeter=0;entryX=0.175;entryY=0.75;entryDx=0;entryDy=0;entryPerimeter=0;" parent="1" source="Bbd-Y3SnXmLpEQH7ZLkI-284" target="Bbd-Y3SnXmLpEQH7ZLkI-279" edge="1">
          <mxGeometry relative="1" as="geometry" />
        </mxCell>
        <mxCell id="Bbd-Y3SnXmLpEQH7ZLkI-306" style="edgeStyle=orthogonalEdgeStyle;rounded=0;orthogonalLoop=1;jettySize=auto;html=1;exitX=1;exitY=0.5;exitDx=0;exitDy=0;exitPerimeter=0;entryX=0.175;entryY=0.25;entryDx=0;entryDy=0;entryPerimeter=0;" parent="1" target="Bbd-Y3SnXmLpEQH7ZLkI-308" edge="1">
          <mxGeometry relative="1" as="geometry">
            <mxPoint x="350.0050000000001" y="70" as="targetPoint" />
            <mxPoint x="254.3800000000001" y="-40" as="sourcePoint" />
            <Array as="points">
              <mxPoint x="254" y="-39" />
              <mxPoint x="290" y="-39" />
              <mxPoint x="290" y="70" />
            </Array>
          </mxGeometry>
        </mxCell>
        <mxCell id="Bbd-Y3SnXmLpEQH7ZLkI-307" value="" style="shape=or;whiteSpace=wrap;html=1;" parent="1" vertex="1">
          <mxGeometry x="220" y="-80" width="40" height="80" as="geometry" />
        </mxCell>
        <mxCell id="Bbd-Y3SnXmLpEQH7ZLkI-484" style="edgeStyle=orthogonalEdgeStyle;rounded=0;orthogonalLoop=1;jettySize=auto;html=1;exitX=1;exitY=0.5;exitDx=0;exitDy=0;exitPerimeter=0;entryX=0.5;entryY=1;entryDx=0;entryDy=0;" parent="1" source="Bbd-Y3SnXmLpEQH7ZLkI-308" edge="1">
          <mxGeometry relative="1" as="geometry">
            <mxPoint x="490.00000000000045" y="100" as="targetPoint" />
          </mxGeometry>
        </mxCell>
        <mxCell id="Bbd-Y3SnXmLpEQH7ZLkI-308" value="" style="shape=xor;whiteSpace=wrap;html=1;" parent="1" vertex="1">
          <mxGeometry x="342.5" y="40" width="75" height="120" as="geometry" />
        </mxCell>
        <mxCell id="Bbd-Y3SnXmLpEQH7ZLkI-312" value="" style="shape=or;whiteSpace=wrap;html=1;" parent="1" vertex="1">
          <mxGeometry x="220" y="190" width="40" height="80" as="geometry" />
        </mxCell>
        <mxCell id="Bbd-Y3SnXmLpEQH7ZLkI-314" value="" style="shape=or;whiteSpace=wrap;html=1;" parent="1" vertex="1">
          <mxGeometry x="220" y="100" width="40" height="80" as="geometry" />
        </mxCell>
        <mxCell id="Bbd-Y3SnXmLpEQH7ZLkI-316" style="edgeStyle=orthogonalEdgeStyle;rounded=0;orthogonalLoop=1;jettySize=auto;html=1;exitX=1;exitY=0.5;exitDx=0;exitDy=0;exitPerimeter=0;entryX=0.233;entryY=0.417;entryDx=0;entryDy=0;entryPerimeter=0;" parent="1" source="Bbd-Y3SnXmLpEQH7ZLkI-317" target="Bbd-Y3SnXmLpEQH7ZLkI-308" edge="1">
          <mxGeometry relative="1" as="geometry">
            <mxPoint x="280" y="90" as="targetPoint" />
            <Array as="points">
              <mxPoint x="280" y="50" />
              <mxPoint x="280" y="90" />
            </Array>
          </mxGeometry>
        </mxCell>
        <mxCell id="Bbd-Y3SnXmLpEQH7ZLkI-317" value="" style="shape=or;whiteSpace=wrap;html=1;" parent="1" vertex="1">
          <mxGeometry x="220" y="10" width="40" height="80" as="geometry" />
        </mxCell>
        <mxCell id="Bbd-Y3SnXmLpEQH7ZLkI-321" style="edgeStyle=orthogonalEdgeStyle;rounded=0;orthogonalLoop=1;jettySize=auto;html=1;exitX=1;exitY=0.5;exitDx=0;exitDy=0;exitPerimeter=0;entryX=0.233;entryY=0.583;entryDx=0;entryDy=0;entryPerimeter=0;" parent="1" source="Bbd-Y3SnXmLpEQH7ZLkI-314" target="Bbd-Y3SnXmLpEQH7ZLkI-308" edge="1">
          <mxGeometry relative="1" as="geometry" />
        </mxCell>
        <mxCell id="Bbd-Y3SnXmLpEQH7ZLkI-322" style="edgeStyle=orthogonalEdgeStyle;rounded=0;orthogonalLoop=1;jettySize=auto;html=1;exitX=1;exitY=0.5;exitDx=0;exitDy=0;exitPerimeter=0;entryX=0.175;entryY=0.75;entryDx=0;entryDy=0;entryPerimeter=0;" parent="1" source="Bbd-Y3SnXmLpEQH7ZLkI-312" target="Bbd-Y3SnXmLpEQH7ZLkI-308" edge="1">
          <mxGeometry relative="1" as="geometry">
            <Array as="points">
              <mxPoint x="320" y="230" />
              <mxPoint x="320" y="130" />
            </Array>
          </mxGeometry>
        </mxCell>
        <mxCell id="Bbd-Y3SnXmLpEQH7ZLkI-324" value="" style="endArrow=none;html=1;rounded=0;entryX=0;entryY=0.5;entryDx=0;entryDy=0;" parent="1" target="2vxnK_81wVWPnXpUkG2R-151" edge="1">
          <mxGeometry width="50" height="50" relative="1" as="geometry">
            <mxPoint x="110" y="-60" as="sourcePoint" />
            <mxPoint x="200" y="-60" as="targetPoint" />
          </mxGeometry>
        </mxCell>
        <mxCell id="Bbd-Y3SnXmLpEQH7ZLkI-325" value="" style="endArrow=none;html=1;rounded=0;entryX=0;entryY=0.5;entryDx=0;entryDy=0;" parent="1" target="2vxnK_81wVWPnXpUkG2R-150" edge="1">
          <mxGeometry width="50" height="50" relative="1" as="geometry">
            <mxPoint x="120" y="-40" as="sourcePoint" />
            <mxPoint x="200" y="-40" as="targetPoint" />
          </mxGeometry>
        </mxCell>
        <mxCell id="Bbd-Y3SnXmLpEQH7ZLkI-326" value="" style="endArrow=none;html=1;rounded=0;" parent="1" edge="1">
          <mxGeometry width="50" height="50" relative="1" as="geometry">
            <mxPoint x="140" y="-20" as="sourcePoint" />
            <mxPoint x="220" y="-20" as="targetPoint" />
          </mxGeometry>
        </mxCell>
        <mxCell id="Bbd-Y3SnXmLpEQH7ZLkI-327" value="" style="endArrow=none;html=1;rounded=0;entryX=0;entryY=0.5;entryDx=0;entryDy=0;" parent="1" target="2vxnK_81wVWPnXpUkG2R-149" edge="1">
          <mxGeometry width="50" height="50" relative="1" as="geometry">
            <mxPoint x="110" y="30" as="sourcePoint" />
            <mxPoint x="200" y="30" as="targetPoint" />
          </mxGeometry>
        </mxCell>
        <mxCell id="Bbd-Y3SnXmLpEQH7ZLkI-328" value="" style="endArrow=none;html=1;rounded=0;entryX=0;entryY=0.5;entryDx=0;entryDy=0;" parent="1" target="2vxnK_81wVWPnXpUkG2R-148" edge="1">
          <mxGeometry width="50" height="50" relative="1" as="geometry">
            <mxPoint x="120" y="50" as="sourcePoint" />
            <mxPoint x="200" y="50" as="targetPoint" />
          </mxGeometry>
        </mxCell>
        <mxCell id="Bbd-Y3SnXmLpEQH7ZLkI-329" value="" style="endArrow=none;html=1;rounded=0;" parent="1" edge="1">
          <mxGeometry width="50" height="50" relative="1" as="geometry">
            <mxPoint x="130" y="70" as="sourcePoint" />
            <mxPoint x="220" y="70" as="targetPoint" />
          </mxGeometry>
        </mxCell>
        <mxCell id="Bbd-Y3SnXmLpEQH7ZLkI-330" value="" style="endArrow=none;html=1;rounded=0;" parent="1" edge="1">
          <mxGeometry width="50" height="50" relative="1" as="geometry">
            <mxPoint x="110" y="110" as="sourcePoint" />
            <mxPoint x="220" y="110" as="targetPoint" />
          </mxGeometry>
        </mxCell>
        <mxCell id="Bbd-Y3SnXmLpEQH7ZLkI-331" value="" style="endArrow=none;html=1;rounded=0;" parent="1" edge="1">
          <mxGeometry width="50" height="50" relative="1" as="geometry">
            <mxPoint x="120" y="130" as="sourcePoint" />
            <mxPoint x="220" y="130" as="targetPoint" />
          </mxGeometry>
        </mxCell>
        <mxCell id="Bbd-Y3SnXmLpEQH7ZLkI-332" value="" style="endArrow=none;html=1;rounded=0;entryX=0;entryY=0.5;entryDx=0;entryDy=0;" parent="1" target="2vxnK_81wVWPnXpUkG2R-147" edge="1">
          <mxGeometry width="50" height="50" relative="1" as="geometry">
            <mxPoint x="130" y="150" as="sourcePoint" />
            <mxPoint x="200" y="150" as="targetPoint" />
          </mxGeometry>
        </mxCell>
        <mxCell id="Bbd-Y3SnXmLpEQH7ZLkI-333" value="" style="endArrow=none;html=1;rounded=0;" parent="1" edge="1">
          <mxGeometry width="50" height="50" relative="1" as="geometry">
            <mxPoint x="140" y="170" as="sourcePoint" />
            <mxPoint x="220" y="170" as="targetPoint" />
          </mxGeometry>
        </mxCell>
        <mxCell id="Bbd-Y3SnXmLpEQH7ZLkI-334" value="" style="endArrow=none;html=1;rounded=0;" parent="1" edge="1">
          <mxGeometry width="50" height="50" relative="1" as="geometry">
            <mxPoint x="130" y="230" as="sourcePoint" />
            <mxPoint x="220" y="230" as="targetPoint" />
          </mxGeometry>
        </mxCell>
        <mxCell id="Bbd-Y3SnXmLpEQH7ZLkI-335" value="" style="endArrow=none;html=1;rounded=0;entryX=0;entryY=0.5;entryDx=0;entryDy=0;" parent="1" target="2vxnK_81wVWPnXpUkG2R-146" edge="1">
          <mxGeometry width="50" height="50" relative="1" as="geometry">
            <mxPoint x="110" y="210" as="sourcePoint" />
            <mxPoint x="200" y="210" as="targetPoint" />
          </mxGeometry>
        </mxCell>
        <mxCell id="Bbd-Y3SnXmLpEQH7ZLkI-336" value="" style="endArrow=none;html=1;rounded=0;" parent="1" edge="1">
          <mxGeometry width="50" height="50" relative="1" as="geometry">
            <mxPoint x="140" y="250" as="sourcePoint" />
            <mxPoint x="220" y="250" as="targetPoint" />
          </mxGeometry>
        </mxCell>
        <mxCell id="Bbd-Y3SnXmLpEQH7ZLkI-354" value="" style="shape=or;whiteSpace=wrap;html=1;" parent="1" vertex="1">
          <mxGeometry x="220" y="-390" width="40" height="80" as="geometry" />
        </mxCell>
        <mxCell id="Bbd-Y3SnXmLpEQH7ZLkI-485" style="edgeStyle=orthogonalEdgeStyle;rounded=0;orthogonalLoop=1;jettySize=auto;html=1;exitX=1;exitY=0.5;exitDx=0;exitDy=0;exitPerimeter=0;entryX=0.5;entryY=1;entryDx=0;entryDy=0;" parent="1" source="Bbd-Y3SnXmLpEQH7ZLkI-355" edge="1">
          <mxGeometry relative="1" as="geometry">
            <mxPoint x="490" y="-260" as="targetPoint" />
          </mxGeometry>
        </mxCell>
        <mxCell id="Bbd-Y3SnXmLpEQH7ZLkI-355" value="" style="shape=xor;whiteSpace=wrap;html=1;" parent="1" vertex="1">
          <mxGeometry x="342.5" y="-320" width="75" height="120" as="geometry" />
        </mxCell>
        <mxCell id="Bbd-Y3SnXmLpEQH7ZLkI-359" value="" style="shape=or;whiteSpace=wrap;html=1;" parent="1" vertex="1">
          <mxGeometry x="220" y="-210" width="40" height="80" as="geometry" />
        </mxCell>
        <mxCell id="Bbd-Y3SnXmLpEQH7ZLkI-361" value="" style="shape=or;whiteSpace=wrap;html=1;" parent="1" vertex="1">
          <mxGeometry x="220" y="-300" width="40" height="80" as="geometry" />
        </mxCell>
        <mxCell id="Bbd-Y3SnXmLpEQH7ZLkI-365" style="edgeStyle=orthogonalEdgeStyle;rounded=0;orthogonalLoop=1;jettySize=auto;html=1;exitX=1;exitY=0.5;exitDx=0;exitDy=0;exitPerimeter=0;entryX=0.175;entryY=0.25;entryDx=0;entryDy=0;entryPerimeter=0;" parent="1" source="Bbd-Y3SnXmLpEQH7ZLkI-354" target="Bbd-Y3SnXmLpEQH7ZLkI-355" edge="1">
          <mxGeometry relative="1" as="geometry" />
        </mxCell>
        <mxCell id="Bbd-Y3SnXmLpEQH7ZLkI-366" style="edgeStyle=orthogonalEdgeStyle;rounded=0;orthogonalLoop=1;jettySize=auto;html=1;exitX=1;exitY=0.5;exitDx=0;exitDy=0;exitPerimeter=0;entryX=0.25;entryY=0.5;entryDx=0;entryDy=0;entryPerimeter=0;" parent="1" source="Bbd-Y3SnXmLpEQH7ZLkI-361" target="Bbd-Y3SnXmLpEQH7ZLkI-355" edge="1">
          <mxGeometry relative="1" as="geometry" />
        </mxCell>
        <mxCell id="Bbd-Y3SnXmLpEQH7ZLkI-367" style="edgeStyle=orthogonalEdgeStyle;rounded=0;orthogonalLoop=1;jettySize=auto;html=1;exitX=1;exitY=0.5;exitDx=0;exitDy=0;exitPerimeter=0;entryX=0.175;entryY=0.75;entryDx=0;entryDy=0;entryPerimeter=0;" parent="1" source="Bbd-Y3SnXmLpEQH7ZLkI-359" target="Bbd-Y3SnXmLpEQH7ZLkI-355" edge="1">
          <mxGeometry relative="1" as="geometry" />
        </mxCell>
        <mxCell id="Bbd-Y3SnXmLpEQH7ZLkI-369" value="" style="endArrow=none;html=1;rounded=0;" parent="1" edge="1">
          <mxGeometry width="50" height="50" relative="1" as="geometry">
            <mxPoint x="110" y="-380" as="sourcePoint" />
            <mxPoint x="220" y="-380" as="targetPoint" />
          </mxGeometry>
        </mxCell>
        <mxCell id="Bbd-Y3SnXmLpEQH7ZLkI-370" value="" style="endArrow=none;html=1;rounded=0;" parent="1" edge="1">
          <mxGeometry width="50" height="50" relative="1" as="geometry">
            <mxPoint x="120" y="-360" as="sourcePoint" />
            <mxPoint x="220" y="-360" as="targetPoint" />
          </mxGeometry>
        </mxCell>
        <mxCell id="Bbd-Y3SnXmLpEQH7ZLkI-371" value="" style="endArrow=none;html=1;rounded=0;entryX=0;entryY=0.5;entryDx=0;entryDy=0;" parent="1" target="2vxnK_81wVWPnXpUkG2R-157" edge="1">
          <mxGeometry width="50" height="50" relative="1" as="geometry">
            <mxPoint x="130" y="-340" as="sourcePoint" />
            <mxPoint x="200" y="-340" as="targetPoint" />
          </mxGeometry>
        </mxCell>
        <mxCell id="Bbd-Y3SnXmLpEQH7ZLkI-372" value="" style="endArrow=none;html=1;rounded=0;entryX=0;entryY=0.5;entryDx=0;entryDy=0;" parent="1" target="2vxnK_81wVWPnXpUkG2R-156" edge="1">
          <mxGeometry width="50" height="50" relative="1" as="geometry">
            <mxPoint x="140" y="-320" as="sourcePoint" />
            <mxPoint x="200" y="-320" as="targetPoint" />
          </mxGeometry>
        </mxCell>
        <mxCell id="Bbd-Y3SnXmLpEQH7ZLkI-373" value="" style="endArrow=none;html=1;rounded=0;entryX=0;entryY=0.5;entryDx=0;entryDy=0;" parent="1" target="2vxnK_81wVWPnXpUkG2R-155" edge="1">
          <mxGeometry width="50" height="50" relative="1" as="geometry">
            <mxPoint x="110" y="-290" as="sourcePoint" />
            <mxPoint x="200" y="-290" as="targetPoint" />
          </mxGeometry>
        </mxCell>
        <mxCell id="Bbd-Y3SnXmLpEQH7ZLkI-374" value="" style="endArrow=none;html=1;rounded=0;" parent="1" edge="1">
          <mxGeometry width="50" height="50" relative="1" as="geometry">
            <mxPoint x="120" y="-270" as="sourcePoint" />
            <mxPoint x="220" y="-270" as="targetPoint" />
          </mxGeometry>
        </mxCell>
        <mxCell id="Bbd-Y3SnXmLpEQH7ZLkI-375" value="" style="endArrow=none;html=1;rounded=0;" parent="1" edge="1">
          <mxGeometry width="50" height="50" relative="1" as="geometry">
            <mxPoint x="130" y="-250" as="sourcePoint" />
            <mxPoint x="220" y="-250" as="targetPoint" />
          </mxGeometry>
        </mxCell>
        <mxCell id="Bbd-Y3SnXmLpEQH7ZLkI-376" value="" style="endArrow=none;html=1;rounded=0;" parent="1" edge="1">
          <mxGeometry width="50" height="50" relative="1" as="geometry">
            <mxPoint x="140" y="-230" as="sourcePoint" />
            <mxPoint x="220" y="-230" as="targetPoint" />
          </mxGeometry>
        </mxCell>
        <mxCell id="Bbd-Y3SnXmLpEQH7ZLkI-377" value="" style="endArrow=none;html=1;rounded=0;entryX=0;entryY=0.5;entryDx=0;entryDy=0;" parent="1" target="2vxnK_81wVWPnXpUkG2R-154" edge="1">
          <mxGeometry width="50" height="50" relative="1" as="geometry">
            <mxPoint x="110" y="-190" as="sourcePoint" />
            <mxPoint x="200" y="-190" as="targetPoint" />
          </mxGeometry>
        </mxCell>
        <mxCell id="Bbd-Y3SnXmLpEQH7ZLkI-378" value="" style="endArrow=none;html=1;rounded=0;entryX=0;entryY=0.5;entryDx=0;entryDy=0;" parent="1" target="2vxnK_81wVWPnXpUkG2R-153" edge="1">
          <mxGeometry width="50" height="50" relative="1" as="geometry">
            <mxPoint x="120" y="-170" as="sourcePoint" />
            <mxPoint x="200.0000000000001" y="-170" as="targetPoint" />
          </mxGeometry>
        </mxCell>
        <mxCell id="Bbd-Y3SnXmLpEQH7ZLkI-379" value="" style="endArrow=none;html=1;rounded=0;entryX=0;entryY=0.5;entryDx=0;entryDy=0;" parent="1" target="2vxnK_81wVWPnXpUkG2R-152" edge="1">
          <mxGeometry width="50" height="50" relative="1" as="geometry">
            <mxPoint x="130" y="-150" as="sourcePoint" />
            <mxPoint x="200.0000000000001" y="-150" as="targetPoint" />
          </mxGeometry>
        </mxCell>
        <mxCell id="Bbd-Y3SnXmLpEQH7ZLkI-386" value="" style="endArrow=none;html=1;rounded=0;" parent="1" edge="1">
          <mxGeometry width="50" height="50" relative="1" as="geometry">
            <mxPoint x="590" y="665" as="sourcePoint" />
            <mxPoint x="590" y="-395" as="targetPoint" />
          </mxGeometry>
        </mxCell>
        <mxCell id="Bbd-Y3SnXmLpEQH7ZLkI-387" value="" style="endArrow=none;html=1;rounded=0;" parent="1" edge="1">
          <mxGeometry width="50" height="50" relative="1" as="geometry">
            <mxPoint x="600" y="684" as="sourcePoint" />
            <mxPoint x="600" y="-356" as="targetPoint" />
          </mxGeometry>
        </mxCell>
        <mxCell id="Bbd-Y3SnXmLpEQH7ZLkI-388" value="" style="endArrow=none;html=1;rounded=0;" parent="1" edge="1">
          <mxGeometry width="50" height="50" relative="1" as="geometry">
            <mxPoint x="610" y="702" as="sourcePoint" />
            <mxPoint x="610" y="-308" as="targetPoint" />
          </mxGeometry>
        </mxCell>
        <mxCell id="Bbd-Y3SnXmLpEQH7ZLkI-390" value="" style="shape=xor;whiteSpace=wrap;html=1;" parent="1" vertex="1">
          <mxGeometry x="710" y="-382.5" width="50" height="65" as="geometry" />
        </mxCell>
        <mxCell id="Bbd-Y3SnXmLpEQH7ZLkI-419" value="" style="endArrow=none;html=1;rounded=0;entryX=0.129;entryY=0.181;entryDx=0;entryDy=0;entryPerimeter=0;" parent="1" target="Bbd-Y3SnXmLpEQH7ZLkI-390" edge="1">
          <mxGeometry width="50" height="50" relative="1" as="geometry">
            <mxPoint x="590" y="-370" as="sourcePoint" />
            <mxPoint x="690" y="-370" as="targetPoint" />
          </mxGeometry>
        </mxCell>
        <mxCell id="Bbd-Y3SnXmLpEQH7ZLkI-420" value="" style="endArrow=none;html=1;rounded=0;entryX=0.25;entryY=0.5;entryDx=0;entryDy=0;entryPerimeter=0;" parent="1" target="Bbd-Y3SnXmLpEQH7ZLkI-390" edge="1">
          <mxGeometry width="50" height="50" relative="1" as="geometry">
            <mxPoint x="600" y="-350" as="sourcePoint" />
            <mxPoint x="690" y="-351" as="targetPoint" />
          </mxGeometry>
        </mxCell>
        <mxCell id="Bbd-Y3SnXmLpEQH7ZLkI-421" value="" style="endArrow=none;html=1;rounded=0;entryX=0.129;entryY=0.813;entryDx=0;entryDy=0;entryPerimeter=0;" parent="1" target="Bbd-Y3SnXmLpEQH7ZLkI-390" edge="1">
          <mxGeometry width="50" height="50" relative="1" as="geometry">
            <mxPoint x="610" y="-330" as="sourcePoint" />
            <mxPoint x="690" y="-330" as="targetPoint" />
          </mxGeometry>
        </mxCell>
        <mxCell id="Bbd-Y3SnXmLpEQH7ZLkI-422" value="" style="endArrow=none;html=1;rounded=0;entryX=0;entryY=0.5;entryDx=0;entryDy=0;" parent="1" target="2vxnK_81wVWPnXpUkG2R-168" edge="1">
          <mxGeometry width="50" height="50" relative="1" as="geometry">
            <mxPoint x="610" y="-176" as="sourcePoint" />
            <mxPoint x="690" y="-176" as="targetPoint" />
          </mxGeometry>
        </mxCell>
        <mxCell id="Bbd-Y3SnXmLpEQH7ZLkI-424" value="" style="endArrow=none;html=1;rounded=0;entryX=0.25;entryY=0.5;entryDx=0;entryDy=0;entryPerimeter=0;" parent="1" edge="1">
          <mxGeometry width="50" height="50" relative="1" as="geometry">
            <mxPoint x="600" y="-195.52999999999997" as="sourcePoint" />
            <mxPoint x="728.75" y="-195" as="targetPoint" />
          </mxGeometry>
        </mxCell>
        <mxCell id="Bbd-Y3SnXmLpEQH7ZLkI-425" value="" style="endArrow=none;html=1;rounded=0;entryX=0.163;entryY=0.209;entryDx=0;entryDy=0;entryPerimeter=0;" parent="1" edge="1">
          <mxGeometry width="50" height="50" relative="1" as="geometry">
            <mxPoint x="590" y="-210" as="sourcePoint" />
            <mxPoint x="722.2249999999999" y="-209.92000000000007" as="targetPoint" />
          </mxGeometry>
        </mxCell>
        <mxCell id="Bbd-Y3SnXmLpEQH7ZLkI-427" value="" style="endArrow=none;html=1;rounded=0;entryX=0.175;entryY=0.25;entryDx=0;entryDy=0;entryPerimeter=0;" parent="1" edge="1">
          <mxGeometry width="50" height="50" relative="1" as="geometry">
            <mxPoint x="590" y="-63" as="sourcePoint" />
            <mxPoint x="723.125" y="-62.999999999999545" as="targetPoint" />
          </mxGeometry>
        </mxCell>
        <mxCell id="Bbd-Y3SnXmLpEQH7ZLkI-428" value="" style="endArrow=none;html=1;rounded=0;entryX=0.148;entryY=0.173;entryDx=0;entryDy=0;entryPerimeter=0;" parent="1" target="2vxnK_81wVWPnXpUkG2R-173" edge="1">
          <mxGeometry width="50" height="50" relative="1" as="geometry">
            <mxPoint x="590" y="90" as="sourcePoint" />
            <mxPoint x="723.125" y="90" as="targetPoint" />
          </mxGeometry>
        </mxCell>
        <mxCell id="Bbd-Y3SnXmLpEQH7ZLkI-430" value="" style="endArrow=none;html=1;rounded=0;" parent="1" edge="1">
          <mxGeometry width="50" height="50" relative="1" as="geometry">
            <mxPoint x="610" y="-16" as="sourcePoint" />
            <mxPoint x="725" y="-16" as="targetPoint" />
          </mxGeometry>
        </mxCell>
        <mxCell id="Bbd-Y3SnXmLpEQH7ZLkI-441" value="" style="endArrow=none;html=1;rounded=0;entryX=0.25;entryY=0.5;entryDx=0;entryDy=0;entryPerimeter=0;" parent="1" target="2vxnK_81wVWPnXpUkG2R-179" edge="1">
          <mxGeometry width="50" height="50" relative="1" as="geometry">
            <mxPoint x="600" y="236" as="sourcePoint" />
            <mxPoint x="728.75" y="236" as="targetPoint" />
          </mxGeometry>
        </mxCell>
        <mxCell id="Bbd-Y3SnXmLpEQH7ZLkI-442" value="" style="endArrow=none;html=1;rounded=0;entryX=0.146;entryY=0.814;entryDx=0;entryDy=0;entryPerimeter=0;" parent="1" target="2vxnK_81wVWPnXpUkG2R-179" edge="1">
          <mxGeometry width="50" height="50" relative="1" as="geometry">
            <mxPoint x="609.88" y="255" as="sourcePoint" />
            <mxPoint x="723.005" y="255" as="targetPoint" />
          </mxGeometry>
        </mxCell>
        <mxCell id="Bbd-Y3SnXmLpEQH7ZLkI-446" value="" style="endArrow=none;html=1;rounded=0;entryX=0.25;entryY=0.5;entryDx=0;entryDy=0;entryPerimeter=0;" parent="1" target="2vxnK_81wVWPnXpUkG2R-180" edge="1">
          <mxGeometry width="50" height="50" relative="1" as="geometry">
            <mxPoint x="600" y="390" as="sourcePoint" />
            <mxPoint x="728.75" y="390" as="targetPoint" />
          </mxGeometry>
        </mxCell>
        <mxCell id="Bbd-Y3SnXmLpEQH7ZLkI-452" value="" style="endArrow=none;html=1;rounded=0;entryX=0.187;entryY=0.806;entryDx=0;entryDy=0;entryPerimeter=0;" parent="1" target="2vxnK_81wVWPnXpUkG2R-181" edge="1">
          <mxGeometry width="50" height="50" relative="1" as="geometry">
            <mxPoint x="610" y="565.2" as="sourcePoint" />
            <mxPoint x="722.375" y="565.0000000000002" as="targetPoint" />
          </mxGeometry>
        </mxCell>
        <mxCell id="Bbd-Y3SnXmLpEQH7ZLkI-462" value="sel[2]" style="text;html=1;align=center;verticalAlign=middle;resizable=0;points=[];autosize=1;strokeColor=none;fillColor=none;" parent="1" vertex="1">
          <mxGeometry x="570" y="-535" width="50" height="30" as="geometry" />
        </mxCell>
        <mxCell id="Bbd-Y3SnXmLpEQH7ZLkI-463" value="sel[1]" style="text;html=1;align=center;verticalAlign=middle;resizable=0;points=[];autosize=1;strokeColor=none;fillColor=none;" parent="1" vertex="1">
          <mxGeometry x="590" y="-500" width="50" height="30" as="geometry" />
        </mxCell>
        <mxCell id="Bbd-Y3SnXmLpEQH7ZLkI-464" value="sel[0]" style="text;html=1;align=center;verticalAlign=middle;resizable=0;points=[];autosize=1;strokeColor=none;fillColor=none;" parent="1" vertex="1">
          <mxGeometry x="600" y="-450" width="50" height="30" as="geometry" />
        </mxCell>
        <mxCell id="Bbd-Y3SnXmLpEQH7ZLkI-486" value="sega" style="text;html=1;align=center;verticalAlign=middle;resizable=0;points=[];autosize=1;strokeColor=none;fillColor=none;" parent="1" vertex="1">
          <mxGeometry x="490" y="1828" width="50" height="30" as="geometry" />
        </mxCell>
        <mxCell id="Bbd-Y3SnXmLpEQH7ZLkI-488" value="segc" style="text;html=1;align=center;verticalAlign=middle;resizable=0;points=[];autosize=1;strokeColor=none;fillColor=none;" parent="1" vertex="1">
          <mxGeometry x="490" y="1144" width="50" height="30" as="geometry" />
        </mxCell>
        <mxCell id="Bbd-Y3SnXmLpEQH7ZLkI-489" value="segd" style="text;html=1;align=center;verticalAlign=middle;resizable=0;points=[];autosize=1;strokeColor=none;fillColor=none;" parent="1" vertex="1">
          <mxGeometry x="490" y="765" width="50" height="30" as="geometry" />
        </mxCell>
        <mxCell id="Bbd-Y3SnXmLpEQH7ZLkI-490" value="sege" style="text;html=1;align=center;verticalAlign=middle;resizable=0;points=[];autosize=1;strokeColor=none;fillColor=none;" parent="1" vertex="1">
          <mxGeometry x="490" y="434" width="50" height="30" as="geometry" />
        </mxCell>
        <mxCell id="Bbd-Y3SnXmLpEQH7ZLkI-491" value="segf" style="text;html=1;align=center;verticalAlign=middle;resizable=0;points=[];autosize=1;strokeColor=none;fillColor=none;" parent="1" vertex="1">
          <mxGeometry x="490" y="84" width="50" height="30" as="geometry" />
        </mxCell>
        <mxCell id="Bbd-Y3SnXmLpEQH7ZLkI-492" value="segg" style="text;html=1;align=center;verticalAlign=middle;resizable=0;points=[];autosize=1;strokeColor=none;fillColor=none;" parent="1" vertex="1">
          <mxGeometry x="490" y="-275" width="50" height="30" as="geometry" />
        </mxCell>
        <mxCell id="2vxnK_81wVWPnXpUkG2R-37" style="edgeStyle=orthogonalEdgeStyle;rounded=0;orthogonalLoop=1;jettySize=auto;html=1;exitX=1;exitY=0.5;exitDx=0;exitDy=0;exitPerimeter=0;entryX=0.175;entryY=0.25;entryDx=0;entryDy=0;entryPerimeter=0;" parent="1" target="2vxnK_81wVWPnXpUkG2R-40" edge="1">
          <mxGeometry relative="1" as="geometry">
            <mxPoint x="350.0050000000001" y="1410" as="targetPoint" />
            <mxPoint x="254.3800000000001" y="1300" as="sourcePoint" />
            <Array as="points">
              <mxPoint x="254" y="1301" />
              <mxPoint x="290" y="1301" />
              <mxPoint x="290" y="1410" />
            </Array>
          </mxGeometry>
        </mxCell>
        <mxCell id="2vxnK_81wVWPnXpUkG2R-38" value="" style="shape=or;whiteSpace=wrap;html=1;" parent="1" vertex="1">
          <mxGeometry x="220" y="1260" width="40" height="80" as="geometry" />
        </mxCell>
        <mxCell id="2vxnK_81wVWPnXpUkG2R-39" style="edgeStyle=orthogonalEdgeStyle;rounded=0;orthogonalLoop=1;jettySize=auto;html=1;exitX=1;exitY=0.5;exitDx=0;exitDy=0;exitPerimeter=0;entryX=0.5;entryY=1;entryDx=0;entryDy=0;" parent="1" source="2vxnK_81wVWPnXpUkG2R-40" edge="1">
          <mxGeometry relative="1" as="geometry">
            <mxPoint x="490" y="1440" as="targetPoint" />
          </mxGeometry>
        </mxCell>
        <mxCell id="2vxnK_81wVWPnXpUkG2R-40" value="" style="shape=xor;whiteSpace=wrap;html=1;" parent="1" vertex="1">
          <mxGeometry x="342.5" y="1380" width="75" height="120" as="geometry" />
        </mxCell>
        <mxCell id="2vxnK_81wVWPnXpUkG2R-42" value="" style="shape=or;whiteSpace=wrap;html=1;" parent="1" vertex="1">
          <mxGeometry x="220" y="1530" width="40" height="80" as="geometry" />
        </mxCell>
        <mxCell id="2vxnK_81wVWPnXpUkG2R-44" value="" style="shape=or;whiteSpace=wrap;html=1;" parent="1" vertex="1">
          <mxGeometry x="220" y="1440" width="40" height="80" as="geometry" />
        </mxCell>
        <mxCell id="2vxnK_81wVWPnXpUkG2R-45" style="edgeStyle=orthogonalEdgeStyle;rounded=0;orthogonalLoop=1;jettySize=auto;html=1;exitX=1;exitY=0.5;exitDx=0;exitDy=0;exitPerimeter=0;entryX=0.233;entryY=0.417;entryDx=0;entryDy=0;entryPerimeter=0;" parent="1" source="2vxnK_81wVWPnXpUkG2R-46" target="2vxnK_81wVWPnXpUkG2R-40" edge="1">
          <mxGeometry relative="1" as="geometry">
            <mxPoint x="280" y="1430" as="targetPoint" />
            <Array as="points">
              <mxPoint x="280" y="1390" />
              <mxPoint x="280" y="1430" />
            </Array>
          </mxGeometry>
        </mxCell>
        <mxCell id="2vxnK_81wVWPnXpUkG2R-46" value="" style="shape=or;whiteSpace=wrap;html=1;" parent="1" vertex="1">
          <mxGeometry x="220" y="1350" width="40" height="80" as="geometry" />
        </mxCell>
        <mxCell id="2vxnK_81wVWPnXpUkG2R-49" style="edgeStyle=orthogonalEdgeStyle;rounded=0;orthogonalLoop=1;jettySize=auto;html=1;exitX=1;exitY=0.5;exitDx=0;exitDy=0;exitPerimeter=0;entryX=0.233;entryY=0.583;entryDx=0;entryDy=0;entryPerimeter=0;" parent="1" source="2vxnK_81wVWPnXpUkG2R-44" target="2vxnK_81wVWPnXpUkG2R-40" edge="1">
          <mxGeometry relative="1" as="geometry" />
        </mxCell>
        <mxCell id="2vxnK_81wVWPnXpUkG2R-50" style="edgeStyle=orthogonalEdgeStyle;rounded=0;orthogonalLoop=1;jettySize=auto;html=1;exitX=1;exitY=0.5;exitDx=0;exitDy=0;exitPerimeter=0;entryX=0.175;entryY=0.75;entryDx=0;entryDy=0;entryPerimeter=0;" parent="1" source="2vxnK_81wVWPnXpUkG2R-42" target="2vxnK_81wVWPnXpUkG2R-40" edge="1">
          <mxGeometry relative="1" as="geometry">
            <Array as="points">
              <mxPoint x="320" y="1570" />
              <mxPoint x="320" y="1470" />
            </Array>
          </mxGeometry>
        </mxCell>
        <mxCell id="2vxnK_81wVWPnXpUkG2R-51" value="" style="endArrow=none;html=1;rounded=0;entryX=0;entryY=0.5;entryDx=0;entryDy=0;entryPerimeter=0;" parent="1" target="2vxnK_81wVWPnXpUkG2R-113" edge="1">
          <mxGeometry width="50" height="50" relative="1" as="geometry">
            <mxPoint x="140" y="1330" as="sourcePoint" />
            <mxPoint x="200" y="1330" as="targetPoint" />
          </mxGeometry>
        </mxCell>
        <mxCell id="2vxnK_81wVWPnXpUkG2R-52" value="" style="endArrow=none;html=1;rounded=0;entryX=0;entryY=0.188;entryDx=0;entryDy=0;entryPerimeter=0;" parent="1" target="2vxnK_81wVWPnXpUkG2R-38" edge="1">
          <mxGeometry width="50" height="50" relative="1" as="geometry">
            <mxPoint x="110" y="1275" as="sourcePoint" />
            <mxPoint x="200" y="1270" as="targetPoint" />
            <Array as="points">
              <mxPoint x="180" y="1275" />
            </Array>
          </mxGeometry>
        </mxCell>
        <mxCell id="2vxnK_81wVWPnXpUkG2R-53" value="" style="endArrow=none;html=1;rounded=0;" parent="1" edge="1">
          <mxGeometry width="50" height="50" relative="1" as="geometry">
            <mxPoint x="120" y="1299.82" as="sourcePoint" />
            <mxPoint x="220" y="1299.82" as="targetPoint" />
          </mxGeometry>
        </mxCell>
        <mxCell id="2vxnK_81wVWPnXpUkG2R-54" value="" style="endArrow=none;html=1;rounded=0;entryX=0;entryY=0.5;entryDx=0;entryDy=0;" parent="1" target="2vxnK_81wVWPnXpUkG2R-112" edge="1">
          <mxGeometry width="50" height="50" relative="1" as="geometry">
            <mxPoint x="110" y="1360" as="sourcePoint" />
            <mxPoint x="200" y="1360" as="targetPoint" />
          </mxGeometry>
        </mxCell>
        <mxCell id="2vxnK_81wVWPnXpUkG2R-55" value="" style="endArrow=none;html=1;rounded=0;" parent="1" edge="1">
          <mxGeometry width="50" height="50" relative="1" as="geometry">
            <mxPoint x="120" y="1375" as="sourcePoint" />
            <mxPoint x="220" y="1375" as="targetPoint" />
          </mxGeometry>
        </mxCell>
        <mxCell id="2vxnK_81wVWPnXpUkG2R-56" value="" style="endArrow=none;html=1;rounded=0;entryX=0;entryY=0.5;entryDx=0;entryDy=0;" parent="1" target="2vxnK_81wVWPnXpUkG2R-111" edge="1">
          <mxGeometry width="50" height="50" relative="1" as="geometry">
            <mxPoint x="120" y="1399.92" as="sourcePoint" />
            <mxPoint x="200" y="1399.92" as="targetPoint" />
            <Array as="points">
              <mxPoint x="160" y="1399.92" />
            </Array>
          </mxGeometry>
        </mxCell>
        <mxCell id="2vxnK_81wVWPnXpUkG2R-57" value="" style="endArrow=none;html=1;rounded=0;" parent="1" edge="1">
          <mxGeometry width="50" height="50" relative="1" as="geometry">
            <mxPoint x="140" y="1415" as="sourcePoint" />
            <mxPoint x="220" y="1415" as="targetPoint" />
          </mxGeometry>
        </mxCell>
        <mxCell id="2vxnK_81wVWPnXpUkG2R-58" value="" style="endArrow=none;html=1;rounded=0;" parent="1" edge="1">
          <mxGeometry width="50" height="50" relative="1" as="geometry">
            <mxPoint x="110" y="1454.77" as="sourcePoint" />
            <mxPoint x="220" y="1454.77" as="targetPoint" />
          </mxGeometry>
        </mxCell>
        <mxCell id="2vxnK_81wVWPnXpUkG2R-59" value="" style="endArrow=none;html=1;rounded=0;" parent="1" edge="1">
          <mxGeometry width="50" height="50" relative="1" as="geometry">
            <mxPoint x="130" y="1480" as="sourcePoint" />
            <mxPoint x="220" y="1480" as="targetPoint" />
          </mxGeometry>
        </mxCell>
        <mxCell id="2vxnK_81wVWPnXpUkG2R-60" value="" style="endArrow=none;html=1;rounded=0;" parent="1" edge="1">
          <mxGeometry width="50" height="50" relative="1" as="geometry">
            <mxPoint x="140" y="1505" as="sourcePoint" />
            <mxPoint x="220" y="1505" as="targetPoint" />
          </mxGeometry>
        </mxCell>
        <mxCell id="2vxnK_81wVWPnXpUkG2R-61" value="" style="endArrow=none;html=1;rounded=0;" parent="1" edge="1">
          <mxGeometry width="50" height="50" relative="1" as="geometry">
            <mxPoint x="120" y="1545" as="sourcePoint" />
            <mxPoint x="220" y="1545" as="targetPoint" />
          </mxGeometry>
        </mxCell>
        <mxCell id="2vxnK_81wVWPnXpUkG2R-62" value="" style="endArrow=none;html=1;rounded=0;" parent="1" edge="1">
          <mxGeometry width="50" height="50" relative="1" as="geometry">
            <mxPoint x="130" y="1569.77" as="sourcePoint" />
            <mxPoint x="220" y="1569.77" as="targetPoint" />
          </mxGeometry>
        </mxCell>
        <mxCell id="2vxnK_81wVWPnXpUkG2R-63" value="" style="endArrow=none;html=1;rounded=0;entryX=0;entryY=0.5;entryDx=0;entryDy=0;" parent="1" target="2vxnK_81wVWPnXpUkG2R-110" edge="1">
          <mxGeometry width="50" height="50" relative="1" as="geometry">
            <mxPoint x="130" y="1595" as="sourcePoint" />
            <mxPoint x="200" y="1595" as="targetPoint" />
          </mxGeometry>
        </mxCell>
        <mxCell id="2vxnK_81wVWPnXpUkG2R-65" value="segb" style="text;html=1;align=center;verticalAlign=middle;resizable=0;points=[];autosize=1;strokeColor=none;fillColor=none;" parent="1" vertex="1">
          <mxGeometry x="490" y="1423" width="50" height="30" as="geometry" />
        </mxCell>
        <mxCell id="2vxnK_81wVWPnXpUkG2R-90" value="" style="shape=offPageConnector;whiteSpace=wrap;html=1;direction=south;rotation=-90;" parent="1" vertex="1">
          <mxGeometry x="100" y="-515" width="20" height="10" as="geometry" />
        </mxCell>
        <mxCell id="2vxnK_81wVWPnXpUkG2R-92" value="" style="shape=offPageConnector;whiteSpace=wrap;html=1;direction=south;rotation=-90;" parent="1" vertex="1">
          <mxGeometry x="110" y="-475" width="20" height="10" as="geometry" />
        </mxCell>
        <mxCell id="2vxnK_81wVWPnXpUkG2R-93" value="" style="shape=offPageConnector;whiteSpace=wrap;html=1;direction=south;rotation=-90;" parent="1" vertex="1">
          <mxGeometry x="120" y="-440" width="20" height="10" as="geometry" />
        </mxCell>
        <mxCell id="2vxnK_81wVWPnXpUkG2R-94" value="" style="shape=offPageConnector;whiteSpace=wrap;html=1;direction=south;rotation=-90;" parent="1" vertex="1">
          <mxGeometry x="130" y="-410" width="20" height="10" as="geometry" />
        </mxCell>
        <mxCell id="2vxnK_81wVWPnXpUkG2R-97" style="edgeStyle=orthogonalEdgeStyle;rounded=0;orthogonalLoop=1;jettySize=auto;html=1;exitX=1;exitY=0.5;exitDx=0;exitDy=0;exitPerimeter=0;entryX=0.175;entryY=0.75;entryDx=0;entryDy=0;entryPerimeter=0;" parent="1" source="Bbd-Y3SnXmLpEQH7ZLkI-7" target="Bbd-Y3SnXmLpEQH7ZLkI-63" edge="1">
          <mxGeometry relative="1" as="geometry">
            <Array as="points">
              <mxPoint x="310" y="1974" />
              <mxPoint x="310" y="1874" />
            </Array>
          </mxGeometry>
        </mxCell>
        <mxCell id="2vxnK_81wVWPnXpUkG2R-98" style="edgeStyle=orthogonalEdgeStyle;rounded=0;orthogonalLoop=1;jettySize=auto;html=1;exitX=1;exitY=0.5;exitDx=0;exitDy=0;exitPerimeter=0;entryX=0.243;entryY=0.405;entryDx=0;entryDy=0;entryPerimeter=0;" parent="1" source="Bbd-Y3SnXmLpEQH7ZLkI-111" target="Bbd-Y3SnXmLpEQH7ZLkI-63" edge="1">
          <mxGeometry relative="1" as="geometry">
            <Array as="points">
              <mxPoint x="280" y="1788" />
              <mxPoint x="280" y="1833" />
            </Array>
          </mxGeometry>
        </mxCell>
        <mxCell id="2vxnK_81wVWPnXpUkG2R-99" style="edgeStyle=orthogonalEdgeStyle;rounded=0;orthogonalLoop=1;jettySize=auto;html=1;exitX=1;exitY=0.5;exitDx=0;exitDy=0;exitPerimeter=0;entryX=0.243;entryY=0.608;entryDx=0;entryDy=0;entryPerimeter=0;" parent="1" source="Bbd-Y3SnXmLpEQH7ZLkI-115" target="Bbd-Y3SnXmLpEQH7ZLkI-63" edge="1">
          <mxGeometry relative="1" as="geometry" />
        </mxCell>
        <mxCell id="2vxnK_81wVWPnXpUkG2R-101" value="" style="ellipse;whiteSpace=wrap;html=1;aspect=fixed;" parent="1" vertex="1">
          <mxGeometry x="210" y="1940" width="10" height="10" as="geometry" />
        </mxCell>
        <mxCell id="2vxnK_81wVWPnXpUkG2R-102" value="" style="ellipse;whiteSpace=wrap;html=1;aspect=fixed;" parent="1" vertex="1">
          <mxGeometry x="210" y="1960" width="10" height="10" as="geometry" />
        </mxCell>
        <mxCell id="2vxnK_81wVWPnXpUkG2R-103" value="" style="ellipse;whiteSpace=wrap;html=1;aspect=fixed;" parent="1" vertex="1">
          <mxGeometry x="210" y="1980" width="10" height="10" as="geometry" />
        </mxCell>
        <mxCell id="2vxnK_81wVWPnXpUkG2R-105" value="" style="ellipse;whiteSpace=wrap;html=1;aspect=fixed;" parent="1" vertex="1">
          <mxGeometry x="210" y="1904" width="10" height="10" as="geometry" />
        </mxCell>
        <mxCell id="2vxnK_81wVWPnXpUkG2R-106" value="" style="ellipse;whiteSpace=wrap;html=1;aspect=fixed;" parent="1" vertex="1">
          <mxGeometry x="210" y="1885" width="10" height="10" as="geometry" />
        </mxCell>
        <mxCell id="2vxnK_81wVWPnXpUkG2R-107" value="" style="ellipse;whiteSpace=wrap;html=1;aspect=fixed;" parent="1" vertex="1">
          <mxGeometry x="210" y="1845" width="10" height="10" as="geometry" />
        </mxCell>
        <mxCell id="2vxnK_81wVWPnXpUkG2R-108" value="" style="ellipse;whiteSpace=wrap;html=1;aspect=fixed;" parent="1" vertex="1">
          <mxGeometry x="210" y="1793" width="10" height="10" as="geometry" />
        </mxCell>
        <mxCell id="2vxnK_81wVWPnXpUkG2R-109" value="" style="ellipse;whiteSpace=wrap;html=1;aspect=fixed;" parent="1" vertex="1">
          <mxGeometry x="210" y="1685" width="10" height="10" as="geometry" />
        </mxCell>
        <mxCell id="2vxnK_81wVWPnXpUkG2R-110" value="" style="ellipse;whiteSpace=wrap;html=1;aspect=fixed;" parent="1" vertex="1">
          <mxGeometry x="210" y="1590" width="10" height="10" as="geometry" />
        </mxCell>
        <mxCell id="2vxnK_81wVWPnXpUkG2R-111" value="" style="ellipse;whiteSpace=wrap;html=1;aspect=fixed;" parent="1" vertex="1">
          <mxGeometry x="210" y="1395" width="10" height="10" as="geometry" />
        </mxCell>
        <mxCell id="2vxnK_81wVWPnXpUkG2R-112" value="" style="ellipse;whiteSpace=wrap;html=1;aspect=fixed;" parent="1" vertex="1">
          <mxGeometry x="210" y="1355" width="10" height="10" as="geometry" />
        </mxCell>
        <mxCell id="2vxnK_81wVWPnXpUkG2R-113" value="" style="ellipse;whiteSpace=wrap;html=1;aspect=fixed;" parent="1" vertex="1">
          <mxGeometry x="210" y="1325" width="10" height="10" as="geometry" />
        </mxCell>
        <mxCell id="2vxnK_81wVWPnXpUkG2R-127" value="" style="ellipse;whiteSpace=wrap;html=1;aspect=fixed;" parent="1" vertex="1">
          <mxGeometry x="210" y="1225" width="10" height="10" as="geometry" />
        </mxCell>
        <mxCell id="2vxnK_81wVWPnXpUkG2R-128" value="" style="ellipse;whiteSpace=wrap;html=1;aspect=fixed;" parent="1" vertex="1">
          <mxGeometry x="210" y="1045" width="10" height="10" as="geometry" />
        </mxCell>
        <mxCell id="2vxnK_81wVWPnXpUkG2R-129" value="" style="ellipse;whiteSpace=wrap;html=1;aspect=fixed;" parent="1" vertex="1">
          <mxGeometry x="210" y="985" width="10" height="10" as="geometry" />
        </mxCell>
        <mxCell id="2vxnK_81wVWPnXpUkG2R-130" value="" style="ellipse;whiteSpace=wrap;html=1;aspect=fixed;" parent="1" vertex="1">
          <mxGeometry x="210" y="845" width="10" height="10" as="geometry" />
        </mxCell>
        <mxCell id="2vxnK_81wVWPnXpUkG2R-131" value="" style="ellipse;whiteSpace=wrap;html=1;aspect=fixed;" parent="1" vertex="1">
          <mxGeometry x="210" y="805" width="10" height="10" as="geometry" />
        </mxCell>
        <mxCell id="2vxnK_81wVWPnXpUkG2R-132" value="" style="ellipse;whiteSpace=wrap;html=1;aspect=fixed;" parent="1" vertex="1">
          <mxGeometry x="210" y="735" width="10" height="10" as="geometry" />
        </mxCell>
        <mxCell id="2vxnK_81wVWPnXpUkG2R-133" value="" style="ellipse;whiteSpace=wrap;html=1;aspect=fixed;" parent="1" vertex="1">
          <mxGeometry x="210" y="715" width="10" height="10" as="geometry" />
        </mxCell>
        <mxCell id="2vxnK_81wVWPnXpUkG2R-134" value="" style="ellipse;whiteSpace=wrap;html=1;aspect=fixed;" parent="1" vertex="1">
          <mxGeometry x="210" y="695" width="10" height="10" as="geometry" />
        </mxCell>
        <mxCell id="2vxnK_81wVWPnXpUkG2R-135" value="" style="ellipse;whiteSpace=wrap;html=1;aspect=fixed;" parent="1" vertex="1">
          <mxGeometry x="210" y="665" width="10" height="10" as="geometry" />
        </mxCell>
        <mxCell id="2vxnK_81wVWPnXpUkG2R-136" value="" style="ellipse;whiteSpace=wrap;html=1;aspect=fixed;" parent="1" vertex="1">
          <mxGeometry x="210" y="645" width="10" height="10" as="geometry" />
        </mxCell>
        <mxCell id="2vxnK_81wVWPnXpUkG2R-137" value="" style="ellipse;whiteSpace=wrap;html=1;aspect=fixed;" parent="1" vertex="1">
          <mxGeometry x="210" y="605" width="10" height="10" as="geometry" />
        </mxCell>
        <mxCell id="2vxnK_81wVWPnXpUkG2R-139" value="" style="ellipse;whiteSpace=wrap;html=1;aspect=fixed;" parent="1" vertex="1">
          <mxGeometry x="210" y="535" width="10" height="10" as="geometry" />
        </mxCell>
        <mxCell id="2vxnK_81wVWPnXpUkG2R-140" value="" style="ellipse;whiteSpace=wrap;html=1;aspect=fixed;" parent="1" vertex="1">
          <mxGeometry x="210" y="514" width="10" height="10" as="geometry" />
        </mxCell>
        <mxCell id="2vxnK_81wVWPnXpUkG2R-141" value="" style="ellipse;whiteSpace=wrap;html=1;aspect=fixed;" parent="1" vertex="1">
          <mxGeometry x="210" y="1005" width="10" height="10" as="geometry" />
        </mxCell>
        <mxCell id="2vxnK_81wVWPnXpUkG2R-142" value="" style="ellipse;whiteSpace=wrap;html=1;aspect=fixed;" parent="1" vertex="1">
          <mxGeometry x="210" y="464" width="10" height="10" as="geometry" />
        </mxCell>
        <mxCell id="2vxnK_81wVWPnXpUkG2R-143" value="" style="ellipse;whiteSpace=wrap;html=1;aspect=fixed;" parent="1" vertex="1">
          <mxGeometry x="210" y="424" width="10" height="10" as="geometry" />
        </mxCell>
        <mxCell id="2vxnK_81wVWPnXpUkG2R-144" value="" style="ellipse;whiteSpace=wrap;html=1;aspect=fixed;" parent="1" vertex="1">
          <mxGeometry x="210" y="335" width="10" height="10" as="geometry" />
        </mxCell>
        <mxCell id="2vxnK_81wVWPnXpUkG2R-146" value="" style="ellipse;whiteSpace=wrap;html=1;aspect=fixed;" parent="1" vertex="1">
          <mxGeometry x="210" y="205" width="10" height="10" as="geometry" />
        </mxCell>
        <mxCell id="2vxnK_81wVWPnXpUkG2R-147" value="" style="ellipse;whiteSpace=wrap;html=1;aspect=fixed;" parent="1" vertex="1">
          <mxGeometry x="210" y="145" width="10" height="10" as="geometry" />
        </mxCell>
        <mxCell id="2vxnK_81wVWPnXpUkG2R-148" value="" style="ellipse;whiteSpace=wrap;html=1;aspect=fixed;" parent="1" vertex="1">
          <mxGeometry x="210" y="45" width="10" height="10" as="geometry" />
        </mxCell>
        <mxCell id="2vxnK_81wVWPnXpUkG2R-149" value="" style="ellipse;whiteSpace=wrap;html=1;aspect=fixed;" parent="1" vertex="1">
          <mxGeometry x="210" y="25" width="10" height="10" as="geometry" />
        </mxCell>
        <mxCell id="2vxnK_81wVWPnXpUkG2R-150" value="" style="ellipse;whiteSpace=wrap;html=1;aspect=fixed;" parent="1" vertex="1">
          <mxGeometry x="210" y="-45" width="10" height="10" as="geometry" />
        </mxCell>
        <mxCell id="2vxnK_81wVWPnXpUkG2R-151" value="" style="ellipse;whiteSpace=wrap;html=1;aspect=fixed;" parent="1" vertex="1">
          <mxGeometry x="210" y="-66" width="10" height="10" as="geometry" />
        </mxCell>
        <mxCell id="2vxnK_81wVWPnXpUkG2R-152" value="" style="ellipse;whiteSpace=wrap;html=1;aspect=fixed;" parent="1" vertex="1">
          <mxGeometry x="210" y="-155" width="10" height="10" as="geometry" />
        </mxCell>
        <mxCell id="2vxnK_81wVWPnXpUkG2R-153" value="" style="ellipse;whiteSpace=wrap;html=1;aspect=fixed;" parent="1" vertex="1">
          <mxGeometry x="210" y="-175" width="10" height="10" as="geometry" />
        </mxCell>
        <mxCell id="2vxnK_81wVWPnXpUkG2R-154" value="" style="ellipse;whiteSpace=wrap;html=1;aspect=fixed;" parent="1" vertex="1">
          <mxGeometry x="210" y="-196" width="10" height="10" as="geometry" />
        </mxCell>
        <mxCell id="2vxnK_81wVWPnXpUkG2R-155" value="" style="ellipse;whiteSpace=wrap;html=1;aspect=fixed;" parent="1" vertex="1">
          <mxGeometry x="210" y="-295" width="10" height="10" as="geometry" />
        </mxCell>
        <mxCell id="2vxnK_81wVWPnXpUkG2R-156" value="" style="ellipse;whiteSpace=wrap;html=1;aspect=fixed;" parent="1" vertex="1">
          <mxGeometry x="210" y="-325" width="10" height="10" as="geometry" />
        </mxCell>
        <mxCell id="2vxnK_81wVWPnXpUkG2R-157" value="" style="ellipse;whiteSpace=wrap;html=1;aspect=fixed;" parent="1" vertex="1">
          <mxGeometry x="210" y="-345" width="10" height="10" as="geometry" />
        </mxCell>
        <mxCell id="2vxnK_81wVWPnXpUkG2R-159" value="" style="endArrow=none;html=1;rounded=0;" parent="1" edge="1">
          <mxGeometry width="50" height="50" relative="1" as="geometry">
            <mxPoint x="590" y="-390" as="sourcePoint" />
            <mxPoint x="590" y="-490" as="targetPoint" />
          </mxGeometry>
        </mxCell>
        <mxCell id="2vxnK_81wVWPnXpUkG2R-160" value="" style="endArrow=none;html=1;rounded=0;" parent="1" edge="1">
          <mxGeometry width="50" height="50" relative="1" as="geometry">
            <mxPoint x="600" y="-350" as="sourcePoint" />
            <mxPoint x="600" y="-450" as="targetPoint" />
          </mxGeometry>
        </mxCell>
        <mxCell id="2vxnK_81wVWPnXpUkG2R-161" value="" style="endArrow=none;html=1;rounded=0;" parent="1" edge="1">
          <mxGeometry width="50" height="50" relative="1" as="geometry">
            <mxPoint x="610" y="-310" as="sourcePoint" />
            <mxPoint x="610" y="-410" as="targetPoint" />
          </mxGeometry>
        </mxCell>
        <mxCell id="2vxnK_81wVWPnXpUkG2R-163" value="" style="shape=offPageConnector;whiteSpace=wrap;html=1;direction=south;rotation=-90;" parent="1" vertex="1">
          <mxGeometry x="580" y="-500" width="20" height="10" as="geometry" />
        </mxCell>
        <mxCell id="2vxnK_81wVWPnXpUkG2R-164" value="" style="shape=offPageConnector;whiteSpace=wrap;html=1;direction=south;rotation=-90;" parent="1" vertex="1">
          <mxGeometry x="590" y="-465" width="20" height="10" as="geometry" />
        </mxCell>
        <mxCell id="2vxnK_81wVWPnXpUkG2R-165" value="" style="shape=offPageConnector;whiteSpace=wrap;html=1;direction=south;rotation=-90;" parent="1" vertex="1">
          <mxGeometry x="600" y="-420" width="20" height="10" as="geometry" />
        </mxCell>
        <mxCell id="2vxnK_81wVWPnXpUkG2R-166" value="" style="shape=xor;whiteSpace=wrap;html=1;" parent="1" vertex="1">
          <mxGeometry x="710" y="-220" width="50" height="65" as="geometry" />
        </mxCell>
        <mxCell id="2vxnK_81wVWPnXpUkG2R-168" value="" style="ellipse;whiteSpace=wrap;html=1;aspect=fixed;" parent="1" vertex="1">
          <mxGeometry x="710" y="-181" width="10" height="10" as="geometry" />
        </mxCell>
        <mxCell id="2vxnK_81wVWPnXpUkG2R-170" value="" style="shape=xor;whiteSpace=wrap;html=1;" parent="1" vertex="1">
          <mxGeometry x="710" y="-72.5" width="50" height="65" as="geometry" />
        </mxCell>
        <mxCell id="2vxnK_81wVWPnXpUkG2R-171" value="" style="endArrow=none;html=1;rounded=0;entryX=0;entryY=0.5;entryDx=0;entryDy=0;" parent="1" target="2vxnK_81wVWPnXpUkG2R-172" edge="1">
          <mxGeometry width="50" height="50" relative="1" as="geometry">
            <mxPoint x="600" y="-40" as="sourcePoint" />
            <mxPoint x="695" y="-40" as="targetPoint" />
          </mxGeometry>
        </mxCell>
        <mxCell id="2vxnK_81wVWPnXpUkG2R-172" value="" style="ellipse;whiteSpace=wrap;html=1;aspect=fixed;" parent="1" vertex="1">
          <mxGeometry x="713" y="-45" width="10" height="10" as="geometry" />
        </mxCell>
        <mxCell id="2vxnK_81wVWPnXpUkG2R-173" value="" style="shape=xor;whiteSpace=wrap;html=1;" parent="1" vertex="1">
          <mxGeometry x="720" y="77.5" width="50" height="65" as="geometry" />
        </mxCell>
        <mxCell id="2vxnK_81wVWPnXpUkG2R-175" value="" style="endArrow=none;html=1;rounded=0;entryX=0;entryY=0.5;entryDx=0;entryDy=0;" parent="1" target="2vxnK_81wVWPnXpUkG2R-176" edge="1">
          <mxGeometry width="50" height="50" relative="1" as="geometry">
            <mxPoint x="600" y="110" as="sourcePoint" />
            <mxPoint x="704" y="110" as="targetPoint" />
          </mxGeometry>
        </mxCell>
        <mxCell id="2vxnK_81wVWPnXpUkG2R-176" value="" style="ellipse;whiteSpace=wrap;html=1;aspect=fixed;" parent="1" vertex="1">
          <mxGeometry x="722" y="105" width="10" height="10" as="geometry" />
        </mxCell>
        <mxCell id="2vxnK_81wVWPnXpUkG2R-177" value="" style="endArrow=none;html=1;rounded=0;entryX=0;entryY=0.5;entryDx=0;entryDy=0;" parent="1" target="2vxnK_81wVWPnXpUkG2R-178" edge="1">
          <mxGeometry width="50" height="50" relative="1" as="geometry">
            <mxPoint x="610" y="130" as="sourcePoint" />
            <mxPoint x="699" y="130" as="targetPoint" />
          </mxGeometry>
        </mxCell>
        <mxCell id="2vxnK_81wVWPnXpUkG2R-178" value="" style="ellipse;whiteSpace=wrap;html=1;aspect=fixed;" parent="1" vertex="1">
          <mxGeometry x="717" y="125" width="10" height="10" as="geometry" />
        </mxCell>
        <mxCell id="2vxnK_81wVWPnXpUkG2R-179" value="" style="shape=xor;whiteSpace=wrap;html=1;" parent="1" vertex="1">
          <mxGeometry x="723" y="202" width="50" height="65" as="geometry" />
        </mxCell>
        <mxCell id="2vxnK_81wVWPnXpUkG2R-180" value="" style="shape=xor;whiteSpace=wrap;html=1;" parent="1" vertex="1">
          <mxGeometry x="723" y="356" width="50" height="65" as="geometry" />
        </mxCell>
        <mxCell id="2vxnK_81wVWPnXpUkG2R-181" value="" style="shape=xor;whiteSpace=wrap;html=1;" parent="1" vertex="1">
          <mxGeometry x="723" y="512.5" width="50" height="65" as="geometry" />
        </mxCell>
        <mxCell id="2vxnK_81wVWPnXpUkG2R-182" value="" style="shape=xor;whiteSpace=wrap;html=1;" parent="1" vertex="1">
          <mxGeometry x="722" y="650" width="50" height="65" as="geometry" />
        </mxCell>
        <mxCell id="2vxnK_81wVWPnXpUkG2R-183" value="" style="endArrow=none;html=1;rounded=0;entryX=0;entryY=0.5;entryDx=0;entryDy=0;" parent="1" target="2vxnK_81wVWPnXpUkG2R-185" edge="1">
          <mxGeometry width="50" height="50" relative="1" as="geometry">
            <mxPoint x="590" y="215" as="sourcePoint" />
            <mxPoint x="697" y="215" as="targetPoint" />
          </mxGeometry>
        </mxCell>
        <mxCell id="2vxnK_81wVWPnXpUkG2R-185" value="" style="ellipse;whiteSpace=wrap;html=1;aspect=fixed;" parent="1" vertex="1">
          <mxGeometry x="721" y="210" width="10" height="10" as="geometry" />
        </mxCell>
        <mxCell id="2vxnK_81wVWPnXpUkG2R-188" value="" style="endArrow=none;html=1;rounded=0;entryX=0;entryY=0.5;entryDx=0;entryDy=0;" parent="1" target="2vxnK_81wVWPnXpUkG2R-189" edge="1">
          <mxGeometry width="50" height="50" relative="1" as="geometry">
            <mxPoint x="590" y="370" as="sourcePoint" />
            <mxPoint x="697" y="370" as="targetPoint" />
          </mxGeometry>
        </mxCell>
        <mxCell id="2vxnK_81wVWPnXpUkG2R-189" value="" style="ellipse;whiteSpace=wrap;html=1;aspect=fixed;" parent="1" vertex="1">
          <mxGeometry x="721" y="365" width="10" height="10" as="geometry" />
        </mxCell>
        <mxCell id="2vxnK_81wVWPnXpUkG2R-190" value="" style="endArrow=none;html=1;rounded=0;entryX=0;entryY=0.5;entryDx=0;entryDy=0;" parent="1" target="2vxnK_81wVWPnXpUkG2R-191" edge="1">
          <mxGeometry width="50" height="50" relative="1" as="geometry">
            <mxPoint x="610" y="405" as="sourcePoint" />
            <mxPoint x="698" y="405" as="targetPoint" />
          </mxGeometry>
        </mxCell>
        <mxCell id="2vxnK_81wVWPnXpUkG2R-191" value="" style="ellipse;whiteSpace=wrap;html=1;aspect=fixed;" parent="1" vertex="1">
          <mxGeometry x="722" y="400" width="10" height="10" as="geometry" />
        </mxCell>
        <mxCell id="2vxnK_81wVWPnXpUkG2R-192" value="" style="endArrow=none;html=1;rounded=0;entryX=0;entryY=0.5;entryDx=0;entryDy=0;" parent="1" target="2vxnK_81wVWPnXpUkG2R-193" edge="1">
          <mxGeometry width="50" height="50" relative="1" as="geometry">
            <mxPoint x="590" y="527" as="sourcePoint" />
            <mxPoint x="697" y="527" as="targetPoint" />
          </mxGeometry>
        </mxCell>
        <mxCell id="2vxnK_81wVWPnXpUkG2R-193" value="" style="ellipse;whiteSpace=wrap;html=1;aspect=fixed;" parent="1" vertex="1">
          <mxGeometry x="721" y="522" width="10" height="10" as="geometry" />
        </mxCell>
        <mxCell id="2vxnK_81wVWPnXpUkG2R-194" value="" style="endArrow=none;html=1;rounded=0;entryX=0;entryY=0.5;entryDx=0;entryDy=0;" parent="1" target="2vxnK_81wVWPnXpUkG2R-195" edge="1">
          <mxGeometry width="50" height="50" relative="1" as="geometry">
            <mxPoint x="600" y="545" as="sourcePoint" />
            <mxPoint x="707" y="545" as="targetPoint" />
          </mxGeometry>
        </mxCell>
        <mxCell id="2vxnK_81wVWPnXpUkG2R-195" value="" style="ellipse;whiteSpace=wrap;html=1;aspect=fixed;" parent="1" vertex="1">
          <mxGeometry x="725" y="540" width="10" height="10" as="geometry" />
        </mxCell>
        <mxCell id="2vxnK_81wVWPnXpUkG2R-197" value="" style="endArrow=none;html=1;rounded=0;entryX=0;entryY=0.5;entryDx=0;entryDy=0;" parent="1" target="2vxnK_81wVWPnXpUkG2R-198" edge="1">
          <mxGeometry width="50" height="50" relative="1" as="geometry">
            <mxPoint x="590" y="665" as="sourcePoint" />
            <mxPoint x="703" y="665" as="targetPoint" />
          </mxGeometry>
        </mxCell>
        <mxCell id="2vxnK_81wVWPnXpUkG2R-198" value="" style="ellipse;whiteSpace=wrap;html=1;aspect=fixed;" parent="1" vertex="1">
          <mxGeometry x="721" y="660" width="10" height="10" as="geometry" />
        </mxCell>
        <mxCell id="2vxnK_81wVWPnXpUkG2R-199" value="" style="endArrow=none;html=1;rounded=0;entryX=0;entryY=0.5;entryDx=0;entryDy=0;" parent="1" target="2vxnK_81wVWPnXpUkG2R-200" edge="1">
          <mxGeometry width="50" height="50" relative="1" as="geometry">
            <mxPoint x="600" y="684" as="sourcePoint" />
            <mxPoint x="707" y="684" as="targetPoint" />
          </mxGeometry>
        </mxCell>
        <mxCell id="2vxnK_81wVWPnXpUkG2R-200" value="" style="ellipse;whiteSpace=wrap;html=1;aspect=fixed;" parent="1" vertex="1">
          <mxGeometry x="725" y="679" width="10" height="10" as="geometry" />
        </mxCell>
        <mxCell id="2vxnK_81wVWPnXpUkG2R-201" value="" style="endArrow=none;html=1;rounded=0;entryX=0;entryY=0.5;entryDx=0;entryDy=0;" parent="1" target="2vxnK_81wVWPnXpUkG2R-202" edge="1">
          <mxGeometry width="50" height="50" relative="1" as="geometry">
            <mxPoint x="610" y="702" as="sourcePoint" />
            <mxPoint x="702" y="702" as="targetPoint" />
          </mxGeometry>
        </mxCell>
        <mxCell id="2vxnK_81wVWPnXpUkG2R-202" value="" style="ellipse;whiteSpace=wrap;html=1;aspect=fixed;" parent="1" vertex="1">
          <mxGeometry x="720" y="697" width="10" height="10" as="geometry" />
        </mxCell>
        <mxCell id="2vxnK_81wVWPnXpUkG2R-204" style="edgeStyle=orthogonalEdgeStyle;rounded=0;orthogonalLoop=1;jettySize=auto;html=1;exitX=1;exitY=0.5;exitDx=0;exitDy=0;exitPerimeter=0;entryX=0.5;entryY=1;entryDx=0;entryDy=0;" parent="1" edge="1">
          <mxGeometry relative="1" as="geometry">
            <mxPoint x="760" y="-350.38" as="sourcePoint" />
            <mxPoint x="832.0000000000005" y="-350.38" as="targetPoint" />
          </mxGeometry>
        </mxCell>
        <mxCell id="2vxnK_81wVWPnXpUkG2R-205" style="edgeStyle=orthogonalEdgeStyle;rounded=0;orthogonalLoop=1;jettySize=auto;html=1;exitX=1;exitY=0.5;exitDx=0;exitDy=0;exitPerimeter=0;entryX=0.5;entryY=1;entryDx=0;entryDy=0;" parent="1" edge="1">
          <mxGeometry relative="1" as="geometry">
            <mxPoint x="760" y="-187.88" as="sourcePoint" />
            <mxPoint x="832.0000000000005" y="-187.88" as="targetPoint" />
          </mxGeometry>
        </mxCell>
        <mxCell id="2vxnK_81wVWPnXpUkG2R-206" style="edgeStyle=orthogonalEdgeStyle;rounded=0;orthogonalLoop=1;jettySize=auto;html=1;exitX=1;exitY=0.5;exitDx=0;exitDy=0;exitPerimeter=0;entryX=0.5;entryY=1;entryDx=0;entryDy=0;" parent="1" edge="1">
          <mxGeometry relative="1" as="geometry">
            <mxPoint x="760" y="-40.620000000000005" as="sourcePoint" />
            <mxPoint x="832.0000000000005" y="-40.620000000000005" as="targetPoint" />
          </mxGeometry>
        </mxCell>
        <mxCell id="2vxnK_81wVWPnXpUkG2R-207" style="edgeStyle=orthogonalEdgeStyle;rounded=0;orthogonalLoop=1;jettySize=auto;html=1;exitX=1;exitY=0.5;exitDx=0;exitDy=0;exitPerimeter=0;entryX=0.5;entryY=1;entryDx=0;entryDy=0;" parent="1" edge="1">
          <mxGeometry relative="1" as="geometry">
            <mxPoint x="770" y="110" as="sourcePoint" />
            <mxPoint x="842.0000000000005" y="110" as="targetPoint" />
          </mxGeometry>
        </mxCell>
        <mxCell id="2vxnK_81wVWPnXpUkG2R-208" style="edgeStyle=orthogonalEdgeStyle;rounded=0;orthogonalLoop=1;jettySize=auto;html=1;exitX=1;exitY=0.5;exitDx=0;exitDy=0;exitPerimeter=0;entryX=0.5;entryY=1;entryDx=0;entryDy=0;" parent="1" edge="1">
          <mxGeometry relative="1" as="geometry">
            <mxPoint x="772" y="235" as="sourcePoint" />
            <mxPoint x="844.0000000000005" y="235" as="targetPoint" />
          </mxGeometry>
        </mxCell>
        <mxCell id="2vxnK_81wVWPnXpUkG2R-209" style="edgeStyle=orthogonalEdgeStyle;rounded=0;orthogonalLoop=1;jettySize=auto;html=1;exitX=1;exitY=0.5;exitDx=0;exitDy=0;exitPerimeter=0;entryX=0.5;entryY=1;entryDx=0;entryDy=0;" parent="1" edge="1">
          <mxGeometry relative="1" as="geometry">
            <mxPoint x="773" y="388.13" as="sourcePoint" />
            <mxPoint x="845.0000000000005" y="388.13" as="targetPoint" />
          </mxGeometry>
        </mxCell>
        <mxCell id="2vxnK_81wVWPnXpUkG2R-210" style="edgeStyle=orthogonalEdgeStyle;rounded=0;orthogonalLoop=1;jettySize=auto;html=1;exitX=1;exitY=0.5;exitDx=0;exitDy=0;exitPerimeter=0;entryX=0.5;entryY=1;entryDx=0;entryDy=0;" parent="1" edge="1">
          <mxGeometry relative="1" as="geometry">
            <mxPoint x="773" y="544.6300000000001" as="sourcePoint" />
            <mxPoint x="845.0000000000005" y="544.6300000000001" as="targetPoint" />
          </mxGeometry>
        </mxCell>
        <mxCell id="2vxnK_81wVWPnXpUkG2R-211" style="edgeStyle=orthogonalEdgeStyle;rounded=0;orthogonalLoop=1;jettySize=auto;html=1;exitX=1;exitY=0.5;exitDx=0;exitDy=0;exitPerimeter=0;entryX=0.5;entryY=1;entryDx=0;entryDy=0;" parent="1" edge="1">
          <mxGeometry relative="1" as="geometry">
            <mxPoint x="772" y="684" as="sourcePoint" />
            <mxPoint x="844.0000000000005" y="684" as="targetPoint" />
          </mxGeometry>
        </mxCell>
        <mxCell id="2vxnK_81wVWPnXpUkG2R-213" value="seg0" style="text;html=1;align=center;verticalAlign=middle;resizable=0;points=[];autosize=1;strokeColor=none;fillColor=none;" parent="1" vertex="1">
          <mxGeometry x="830" y="-365" width="50" height="30" as="geometry" />
        </mxCell>
        <mxCell id="2vxnK_81wVWPnXpUkG2R-214" value="seg1" style="text;html=1;align=center;verticalAlign=middle;resizable=0;points=[];autosize=1;strokeColor=none;fillColor=none;" parent="1" vertex="1">
          <mxGeometry x="830" y="-202.5" width="50" height="30" as="geometry" />
        </mxCell>
        <mxCell id="2vxnK_81wVWPnXpUkG2R-215" value="seg2" style="text;html=1;align=center;verticalAlign=middle;resizable=0;points=[];autosize=1;strokeColor=none;fillColor=none;" parent="1" vertex="1">
          <mxGeometry x="830" y="-55" width="50" height="30" as="geometry" />
        </mxCell>
        <mxCell id="2vxnK_81wVWPnXpUkG2R-216" value="seg3" style="text;html=1;align=center;verticalAlign=middle;resizable=0;points=[];autosize=1;strokeColor=none;fillColor=none;" parent="1" vertex="1">
          <mxGeometry x="830" y="95" width="50" height="30" as="geometry" />
        </mxCell>
        <mxCell id="2vxnK_81wVWPnXpUkG2R-217" value="seg4" style="text;html=1;align=center;verticalAlign=middle;resizable=0;points=[];autosize=1;strokeColor=none;fillColor=none;" parent="1" vertex="1">
          <mxGeometry x="832" y="220" width="50" height="30" as="geometry" />
        </mxCell>
        <mxCell id="2vxnK_81wVWPnXpUkG2R-218" value="seg5" style="text;html=1;align=center;verticalAlign=middle;resizable=0;points=[];autosize=1;strokeColor=none;fillColor=none;" parent="1" vertex="1">
          <mxGeometry x="832" y="375" width="50" height="30" as="geometry" />
        </mxCell>
        <mxCell id="2vxnK_81wVWPnXpUkG2R-219" value="seg6" style="text;html=1;align=center;verticalAlign=middle;resizable=0;points=[];autosize=1;strokeColor=none;fillColor=none;" parent="1" vertex="1">
          <mxGeometry x="832" y="530" width="50" height="30" as="geometry" />
        </mxCell>
        <mxCell id="2vxnK_81wVWPnXpUkG2R-220" value="seg7" style="text;html=1;align=center;verticalAlign=middle;resizable=0;points=[];autosize=1;strokeColor=none;fillColor=none;" parent="1" vertex="1">
          <mxGeometry x="832" y="670" width="50" height="30" as="geometry" />
        </mxCell>
      </root>
    </mxGraphModel>
  </diagram>
</mxfile>
